<svg xmlns="http://www.w3.org/2000/svg" viewBox="0 0 120 89.89"><defs><style>.cls-1{fill:#d8d8dd;}.cls-2{fill:#9fa0ac;}.cls-3{fill:#bc5b57;}.cls-4{fill:#393c54;opacity:0.3;}.cls-4,.cls-9{isolation:isolate;}.cls-5{fill:#f8dc25;}.cls-6{fill:#f2bc0f;}.cls-7{fill:#f1f3f4;}.cls-8{fill:#f85565;}.cls-9{fill:#fff;opacity:0.2;}</style></defs><title>favicon</title><g id="Layer_2" data-name="Layer 2"><g id="Layer_1-2" data-name="Layer 1"><path class="cls-1" d="M36.16,35.63C20.42,35.63,7.67,21.11,7.67,3.21V1.54A1.42,1.42,0,0,0,5,.74,41.15,41.15,0,0,0,0,20.67C0,41.33,14.72,58.08,32.88,58.08S50.11,35.63,36.16,35.63Z"/><path class="cls-2" d="M36.16,35.63a25.85,25.85,0,0,1-14.33-4.4c-1.29,4.93-6.77,7.12-14.44,4.93a8.92,8.92,0,0,1-6.14-5.3c3.9,15.7,16.58,27.22,31.63,27.22C51,58.08,50.11,35.63,36.16,35.63Z"/><path class="cls-1" d="M83.84,35.63c15.74,0,28.49-14.52,28.49-32.42V1.54A1.42,1.42,0,0,1,115,.74a41,41,0,0,1,5,19.93c0,20.66-14.72,37.41-32.88,37.41S69.89,35.63,83.84,35.63Z"/><path class="cls-2" d="M78.63,40.56c-1.46-.8-3.4,2.7-4.6,2C71.8,49.16,75.65,58.1,87.12,58.1,105.28,58.1,120,41.35,120,20.69a17.25,17.25,0,0,0-.06-1.76C115.89,38.35,100.55,52.56,78.63,40.56Z"/><path class="cls-3" d="M98,55.2A38.44,38.44,0,0,0,59.46,16.84a36.1,36.1,0,0,0-4,.22C36.46,19,21,36.81,21,55.88v8.68H98Z"/><path class="cls-4" d="M85,54.33A25.52,25.52,0,0,0,61.34,28.84c-15-1.07-27.34,11-27.34,26.1v5.62H85Z"/><path class="cls-4" d="M98,63.56V55.2a37.94,37.94,0,0,0-.43-5.64h-76A37.13,37.13,0,0,0,21,55.88v7.68Z"/><path class="cls-5" d="M22.5,54.56h75a7.5,7.5,0,0,1,7.5,7.5h0a7.5,7.5,0,0,1-7.5,7.5h-75a7.5,7.5,0,0,1-7.5-7.5h0A7.5,7.5,0,0,1,22.5,54.56Z"/><polygon class="cls-6" points="68 15.82 60 12.53 52 15.82 52 58.56 68 58.56 68 15.82"/><circle class="cls-7" cx="60" cy="25.06" r="3.5"/><circle class="cls-7" cx="60" cy="39.06" r="3.5"/><path class="cls-6" d="M22.09,63.56l5.91,6H92l6-6a2.18,2.18,0,0,0,0-3.1h0l-6-5.9H28l-6,6A2.19,2.19,0,0,0,22.09,63.56Z"/><path class="cls-5" d="M26.38,63.56l5.95,6H87.67l6-6a2.18,2.18,0,0,0,0-3.1h0l-6-6H32.33l-6,6a2.18,2.18,0,0,0,.05,3.09Z"/><path class="cls-6" d="M43.52,63.56l5.95,6H70.53l6-6a2.18,2.18,0,0,0,0-3.1h0l-6-6H49.47l-6,6a2.18,2.18,0,0,0,.05,3.09Z"/><path class="cls-5" d="M75,62.06,61.55,74.85a2.2,2.2,0,0,1-3.1,0h0L45,62.06,58.45,48.27a2.19,2.19,0,0,1,3.1,0h0Z"/><path class="cls-5" d="M68,84l-6.46,5.31a2.47,2.47,0,0,1-3.08,0L52,84V66.56H68Z"/><rect class="cls-8" x="53.31" y="55.77" width="13.38" height="13.38" rx="1.35" transform="translate(-26.59 60.72) rotate(-45)"/><path class="cls-9" d="M63.38,59.08,61,56.66a1.35,1.35,0,0,0-1.91,0h0l-3.77,3.77,2.42,2.42a1.36,1.36,0,0,0,1.91,0h0Z"/><path class="cls-4" d="M68.5,61.5l-1.74-1.74L59.6,66.91a1.36,1.36,0,0,1-1.91,0h0l-5.8-5.8-.4.4a1.35,1.35,0,0,0,0,1.91h0L59,71a1.36,1.36,0,0,0,1.91,0h0l7.55-7.55a1.35,1.35,0,0,0,0-1.91Z"/><circle class="cls-7" cx="60" cy="79.06" r="3.5"/></g></g></svg>