<?xml version="1.0" encoding="utf-8"?>
<!-- Generator: Adobe Illustrator 24.0.0, SVG Export Plug-In . SVG Version: 6.00 Build 0)  -->
<svg version="1.1" id="Layer_1" xmlns="http://www.w3.org/2000/svg" xmlns:xlink="http://www.w3.org/1999/xlink" x="0px" y="0px"
	 viewBox="0 0 213.3 64.7" style="enable-background:new 0 0 213.3 64.7;" xml:space="preserve">
<style type="text/css">
	.st0{fill:#003133;}
</style>
<g id="Layer_2_1_">
	<g id="Layer_1-2">
		<path class="st0" d="M17.2,53.1c6.2,2.2,17,3.7,29.9-4.7c5.2,2.1,10.8,3.1,16.4,3c4-0.1,8-1,11.6-2.7c3.2,1.2,6.6,1.9,10,2.2
			c7.1,0.4,14.2-0.9,20.8-3.7c6.1,2.8,12.9,4.2,19.6,4.1c4.2-0.2,8.4-1.1,12.3-2.7c3.7,1.7,7.7,2.6,11.8,2.8
			c5.6,0.1,11.2-1,16.5-3.1c12.5,8.3,23.1,7,29.3,4.8c1.9-0.7,3.7-1.5,5.4-2.6c6.8,7.3,12.3,14,12.4,14.1v-9.3
			c-0.3-0.4-3.2-4-7.3-8.6c4.7-4.5,7.3-10.1,7.3-14.6c0-5-2.8-10.3-7.1-14.4c4-4.5,6.8-8,7.1-8.4V0c-0.1,0.1-5.5,6.7-12.2,13.9
			c-1.5-0.9-3.2-1.7-4.9-2.3c-6.2-2.3-17-3.8-30,4.7c-5.2-2.1-10.8-3.2-16.5-3.1c-4,0.1-7.9,1-11.6,2.6c-3.2-1.2-6.5-1.9-9.9-2.1
			c-7.1-0.4-14.2,0.9-20.8,3.7c-6.1-2.8-12.9-4.2-19.6-4.1c-4.3,0.2-8.5,1.1-12.4,2.7c-3.7-1.7-7.8-2.7-11.9-2.8
			c-5.6-0.1-11.2,0.9-16.4,3C34.7,8,24.1,9.3,18,11.5c-1.9,0.7-3.8,1.6-5.6,2.6C5.6,6.8,0.1,0.1,0,0v9.4c0.3,0.4,3.2,4,7.4,8.6
			c-4.6,4.5-7.2,10-7.2,14.5c0,5,2.7,10.2,7,14.3c-4,4.6-6.9,8.1-7.2,8.5v9.3c0.1-0.1,5.5-6.7,12.3-14
			C13.8,51.7,15.5,52.5,17.2,53.1z M19.6,46.6c-0.8-0.3-1.6-0.7-2.4-1.1c3.3-3.3,6.6-6.5,9.6-9c4,3.1,8.2,5.9,12.7,8.3
			C30.8,49.2,23.8,48.2,19.6,46.6z M149.5,32.1c-3.3,3.7-7.3,6.7-11.6,9c-3.7-2.2-7-5.1-9.7-8.5l0.2-0.2l-0.3-0.3
			c2.8-3.6,6.2-6.6,10.1-8.8C142.5,25.5,146.3,28.5,149.5,32.1z M167.2,24.1c4.9,2.3,9.6,5.1,13.9,8.3c-4.3,3.2-9,6-13.9,8.3
			c-3.2-2.5-6.1-5.3-8.7-8.4C161.2,29.2,164.1,26.5,167.2,24.1L167.2,24.1z M118.1,32.3c-3.7,2.9-7.8,5.4-12.1,7.4
			c-3.8-2-7.5-4.4-10.8-7.2c3.7-2.9,7.8-5.4,12-7.4C111.2,27.1,114.8,29.5,118.1,32.3L118.1,32.3z M85.1,32.2L85.1,32.2l0.1,0.3
			c-2.7,3.6-6.2,6.6-10.1,8.8c-4.3-2.1-8.1-5.1-11.2-8.7c3.3-3.7,7.2-6.7,11.5-9C79.2,25.8,82.5,28.7,85.1,32.2L85.1,32.2z
			 M54.9,32.5c-2.6,3-5.6,5.7-8.7,8.2c-4.9-2.3-9.6-5.1-14-8.3c4.4-3.3,9.1-6,14-8.3C49.3,26.6,52.3,29.4,54.9,32.5L54.9,32.5z
			 M63.4,44.6c-3.3,0.1-6.5-0.3-9.7-1.2c2-1.8,3.9-3.6,5.7-5.6c2.2,2.4,4.6,4.5,7.3,6.4C65.6,44.4,64.5,44.5,63.4,44.6L63.4,44.6z
			 M85.6,44.1c-0.9-0.1-1.8-0.2-2.6-0.3c2.5-2.1,4.7-4.4,6.7-7c2.5,2.2,5.2,4.2,8,6C93.8,43.9,89.7,44.3,85.6,44.1L85.6,44.1z
			 M125.4,44.5c-3.7,0.1-7.4-0.4-10.9-1.5c3.2-1.9,6.2-4,9.1-6.3c2,2.6,4.3,5,6.8,7.1C128.7,44.2,127,44.4,125.4,44.5L125.4,44.5z
			 M149.9,44.6c-1.2-0.1-2.5-0.2-3.7-0.4c2.8-2,5.5-4.3,7.8-6.8c1.8,2.1,3.8,4.1,5.8,5.9C156.6,44.2,153.2,44.6,149.9,44.6
			L149.9,44.6z M193.2,46.8c-4.2,1.5-11,2.4-19.4-1.9c4.4-2.4,8.7-5.2,12.6-8.3c3.3,2.8,6.5,5.8,9.6,9
			C195.1,46,194.2,46.4,193.2,46.8L193.2,46.8z M206.3,32.2c0,2.9-1.9,6.5-5.1,9.6c-3-3.2-6.4-6.5-9.7-9.4c3.4-2.9,6.8-6.3,9.9-9.5
			C204.6,25.8,206.4,29.4,206.3,32.2L206.3,32.2z M193.8,18.1c0.8,0.3,1.6,0.6,2.3,1c-3.1,3.2-6.3,6.2-9.7,9.1
			c-4-3.1-8.2-5.9-12.6-8.3C182.6,15.5,189.6,16.5,193.8,18.1z M149.8,20.1c3.3-0.1,6.6,0.3,9.8,1.2c-2,1.7-3.9,3.6-5.6,5.5
			c-2.2-2.4-4.7-4.6-7.3-6.5C147.8,20.3,148.8,20.2,149.8,20.1L149.8,20.1z M127.7,20.6c0.8,0.1,1.7,0.2,2.5,0.3
			c-2.4,2.1-4.7,4.4-6.6,6.9c-2.5-2.2-5.1-4.1-7.9-5.9C119.6,20.8,123.7,20.3,127.7,20.6L127.7,20.6z M88,20.2
			c3.7-0.1,7.4,0.4,11,1.4c-3.2,1.9-6.3,4-9.2,6.3c-2-2.6-4.3-5-6.8-7.1C84.7,20.5,86.4,20.3,88,20.2L88,20.2z M63.3,20.1
			c1.3,0,2.6,0.2,3.8,0.4c-2.8,2-5.4,4.2-7.7,6.7c-1.8-2.1-3.8-4.1-5.9-6C56.8,20.4,60.1,20,63.3,20.1L63.3,20.1z M20.2,18
			c4.1-1.5,10.9-2.4,19.3,1.8c-4.5,2.4-8.7,5.2-12.7,8.4c-3-2.5-6.3-5.6-9.5-8.9C18.2,18.8,19.2,18.4,20.2,18z M7.1,32.6
			c0-2.8,1.9-6.4,5-9.5c3,3.2,6.3,6.4,9.7,9.3c-3.4,2.9-6.8,6.2-9.8,9.5C8.8,38.8,7.1,35.3,7.1,32.6z"/>
	</g>
</g>
</svg>
