<svg xmlns="http://www.w3.org/2000/svg" viewBox="0 0 942.13 1388.69"><defs><style>.cls-1{isolation:isolate;}.cls-2{fill:#434248;}.cls-3{fill:#fff;}.cls-4,.cls-6{fill:#b2b5b5;}.cls-4,.cls-5{mix-blend-mode:multiply;}</style></defs><title>odin-face</title><g class="cls-1"><g id="Layer_2" data-name="Layer 2"><g id="Capa_1" data-name="Capa 1"><path class="cls-2" d="M236,860.31a45.21,45.21,0,0,0-12.81-32.22,54.48,54.48,0,1,0-64-.92,45.22,45.22,0,0,0,.58,65.47,45.17,45.17,0,0,0-1,66.85,45.2,45.2,0,0,0,3.87,70.83,35.26,35.26,0,0,0,5.48,52.35,35.22,35.22,0,0,0-14.66,28.1c0,47.5,59.86,32.37,21.69,82.36,38.72-31.61,49-42.76,49-81.35,0-15.37-5.15-24.83-13.26-30.16a35.28,35.28,0,0,0,4.06-51.33,45.18,45.18,0,0,0,4.85-69.93,45.14,45.14,0,0,0,1-66.84A45.23,45.23,0,0,0,236,860.31Z"/><path class="cls-3" d="M155.34,801c32.82,42.45,90.95,4.77,74.48-34.7-8.45,21.32-20.91,31.57-33.23,36-24.77-12-34.51-44.35-34.51-44.35s-.6,36.45,30.32,45.65C173.12,808.78,155.34,801,155.34,801Z"/><path class="cls-3" d="M193.44,876.33c30.92-9.2,30.32-45.65,30.32-45.65S214,863.06,189.25,875c-12.32-4.48-24.79-14.73-33.23-36-16.47,39.46,41.65,77.14,74.47,34.68C230.49,873.67,212.72,881.42,193.44,876.33Z"/><path class="cls-3" d="M156.57,942.85c29.9,38.68,82.86,4.35,67.85-31.6-7.7,19.42-19,28.75-30.28,32.83-22.56-10.89-31.44-40.4-31.44-40.4s-.54,33.21,27.63,41.59C172.76,949.92,156.57,942.85,156.57,942.85Z"/><path class="cls-3" d="M193.29,1010.88c28.18-8.38,27.63-41.59,27.63-41.59s-8.88,29.5-31.44,40.4c-11.22-4.08-22.59-13.41-30.28-32.83-15,35.95,38,70.28,67.85,31.6C227.05,1008.46,210.86,1015.53,193.29,1010.88Z"/><path class="cls-3" d="M193.55,1069.78c-16.83-8.13-23.44-30.12-23.44-30.12s-.41,24.76,20.59,31c-13.1,3.46-25.16-1.81-25.16-1.81,22.28,28.84,61.78,3.25,50.58-23.56C210.39,1059.78,201.92,1066.74,193.55,1069.78Z"/><path class="cls-3" d="M191.82,1169s36.31-31.89,20.32-72.08C211.32,1141.1,191.82,1169,191.82,1169Z"/><path class="cls-3" d="M168.27,1101.59c-16,25.39,20.33,45.52,20.33,45.52S169.1,1129.49,168.27,1101.59Z"/><path class="cls-2" d="M219.8,774.43s61.94,6.08,47,79.17,29.46-130.1,29.46-130.1S230.11,701.79,219.8,774.43Z"/><path class="cls-3" d="M278.61,523.89s-84.2-6.18-88,84.12-70.33,80-76,79.43,55.32,95.59,173.08,0S322.89,532,278.61,523.89Z"/><path class="cls-2" d="M278.57,524.29s-2.64-.17-7.63.06A95.25,95.25,0,0,0,249.67,528a77,77,0,0,0-29.12,15.62c-9.71,8.3-17.7,20.7-22,35.63q-1.23,5.7-2.52,11.63c-.87,3.94-.88,8.14-1.38,12.31s-.81,8.72-1.22,13.18q-.31,3.35-.63,6.73c-.24,2.27-.85,4.64-1.31,7s-1,4.7-1.52,7.07-1.5,4.61-2.25,6.93-1.52,4.66-2.61,6.89l-3.46,6.65c-5,8.65-11.88,16.77-20.81,22.29s-19.3,8.4-29.77,9.2a81.8,81.8,0,0,1-15.8-.36l-.49-.06-.24,0c-.17,0,.65-.06.18,0s.55-.06.64-.49.08-.16.1-.27,0,.11,0,.14a7.59,7.59,0,0,0,.61,1.55,28.3,28.3,0,0,0,1.91,3.24,50.42,50.42,0,0,0,4.77,6.08,88.35,88.35,0,0,0,24.69,19,87.31,87.31,0,0,0,30,8.85c20.91,2.17,41.83-3.2,60.43-11.93s35.57-20.67,50.54-33.53c15.16-13,28.71-26.34,39-41,10.35-14.52,16.9-30.45,17.37-45.66s-5.52-29-13.6-38.78a89.36,89.36,0,0,0-25.39-21.32A94,94,0,0,0,286,526.12c-2.39-.71-4.25-1.17-5.52-1.41Zm.11-.79,1.94.4c1.29.23,3.17.66,5.6,1.34a113.23,113.23,0,0,1,20.32,8c8.3,4.42,18.31,10.44,27.41,20.29,9.06,9.61,17.17,23.94,17.59,41.12s-6.52,34.94-17.25,50.4c-2.56,4-5.65,7.66-8.59,11.51-3.22,3.6-6.3,7.42-9.83,10.85l-5.19,5.3-5.52,5.12c-3.66,3.53-7.54,6.62-11.39,9.84-15.71,13-33.23,25-53,33.63a138.78,138.78,0,0,1-31.1,9.5,103.22,103.22,0,0,1-32.77.36,94.85,94.85,0,0,1-56-30.6,71,71,0,0,1-4.94-6.35,32.8,32.8,0,0,1-2.11-3.5,11.24,11.24,0,0,1-.83-2.09,3.09,3.09,0,0,1-.08-.83,1.57,1.57,0,0,1,.17-.74,1.65,1.65,0,0,1,1-.8c-.3,0,.68-.09.67-.06l.25,0,.49.06a66.35,66.35,0,0,0,15.3,0,57.84,57.84,0,0,0,27.66-9.93c8-5.56,13.78-13.3,18-21.5l2.87-6.29c.91-2.1,1.38-4.38,2.11-6.54s1.48-4.3,1.91-6.49.81-4.39,1.21-6.56.93-4.26,1.16-6.5.39-4.5.58-6.73.39-4.44.58-6.63.45-4.34.68-6.48c.61-4.41.73-8.79,1.72-13s2.16-8.27,3.21-12.28A76.44,76.44,0,0,1,218.37,541c10.7-8.14,21.87-11.91,30.93-14.28a116.5,116.5,0,0,1,21.6-3.22c5-.18,7.74,0,7.74,0Z"/><path class="cls-2" d="M152.73,695.12c5.71-.42,73-1.4,61.64-91-4.25-33.48,4.81-55.57,17.82-70.12C212,544.42,192.4,565.54,190.61,608c-3.79,90.3-70.33,80-76,79.43-4.46-.42,31.85,58.21,104.16,38.19C175.53,726,149.3,695.38,152.73,695.12Z"/><path class="cls-3" d="M279.48,597.29s-67.4,8-56.62,79.79S179.54,750.92,175,751.36s58.24,67,136.6-26.39S315.66,596.91,279.48,597.29Z"/><path class="cls-2" d="M279.51,597.69a60.91,60.91,0,0,0-6,1.21,75.17,75.17,0,0,0-16.18,6.19A61,61,0,0,0,236.93,622c-6.31,8-10.55,19-11.57,31.33-.05,3.09-.11,6.26-.16,9.48s.57,6.52.81,9.86.69,7,1.05,10.6c.17,1.79.35,3.59.53,5.4s0,3.83,0,5.75-.09,3.91-.14,5.87-.5,3.9-.75,5.87-.52,3.93-1.05,5.88-1.18,3.86-1.77,5.82c-2.73,7.65-7,15.15-13.28,20.89s-14.13,9.54-22.31,11.76a67.19,67.19,0,0,1-12.58,2.1l-.39,0-.2,0c-.15,0,.66-.19.23-.07s.59-.21.57-.66,0-.18,0-.3,0,0,0,0a7,7,0,0,0,.69,1.08,22.85,22.85,0,0,0,2,2.24,39.44,39.44,0,0,0,4.67,4,70.87,70.87,0,0,0,22.33,11.18,69.85,69.85,0,0,0,24.9,2.26c16.72-1.58,32.26-9,45.5-18.76s24.75-21.7,34.54-34.12,18.52-25.08,24.42-38.15,8.66-26.32,6.85-38.23a46.55,46.55,0,0,0-16.23-28.38,71.07,71.07,0,0,0-23.11-13.1A74.79,74.79,0,0,0,285.62,598c-2-.2-3.53-.27-4.57-.28Zm0-.8h1.59c1.05,0,2.61,0,4.64.2A94.36,94.36,0,0,1,303,600.27c7.24,2.21,16.12,5.33,24.9,11.7,8.7,6.16,17.5,16.25,20.58,29.92s.3,28.92-5.83,42.86c-1.41,3.58-3.3,7-5,10.47-2,3.34-3.86,6.85-6.13,10.11a187.53,187.53,0,0,1-14.42,19.41c-10.5,12.64-22.55,24.82-36.94,34.68a111.94,111.94,0,0,1-23.28,12.21,82.85,82.85,0,0,1-26,5.17,77.25,77.25,0,0,1-49-15.85,63.58,63.58,0,0,1-4.88-4.28,24.12,24.12,0,0,1-2.23-2.47,8.69,8.69,0,0,1-1-1.57,2.63,2.63,0,0,1-.22-.7,1.61,1.61,0,0,1,0-.69,1.64,1.64,0,0,1,.78-1c-.3.07.63-.2.6-.17l.2,0,.4,0a52.52,52.52,0,0,0,12-2.34,45.91,45.91,0,0,0,20.09-12.09,46.45,46.45,0,0,0,10.68-19.58q.64-2.68,1.27-5.36c.38-1.78.38-3.65.62-5.44s.5-3.59.5-5.37-.05-3.55-.07-5.3.08-3.46-.08-5.26-.38-3.62-.57-5.4-.38-3.56-.56-5.32-.29-3.49-.44-5.21c-.19-3.6-.76-7.1-.6-10.59s.47-6.91.7-10.26a61.72,61.72,0,0,1,15.21-32.8c7.31-8.07,15.62-12.66,22.43-15.9a96.77,96.77,0,0,1,16.59-5.79c4-.91,6.12-1.16,6.12-1.16Z"/><path class="cls-2" d="M711.35,860.31a45.25,45.25,0,0,1,12.81-32.22,54.49,54.49,0,1,1,64.05-.92,45.22,45.22,0,0,1-.58,65.47,45.17,45.17,0,0,1,1,66.85,45.2,45.2,0,0,1-3.87,70.83,35.26,35.26,0,0,1-5.48,52.35,35.22,35.22,0,0,1,14.66,28.1c0,47.5-59.86,32.37-21.69,82.36-38.73-31.61-49-42.76-49-81.35,0-15.37,5.15-24.83,13.26-30.16a35.28,35.28,0,0,1-4.06-51.33,45.16,45.16,0,0,1-4.85-69.93,45.14,45.14,0,0,1-1-66.84A45.19,45.19,0,0,1,711.35,860.31Z"/><path class="cls-3" d="M792,801c-32.82,42.45-90.95,4.77-74.48-34.7,8.46,21.32,20.91,31.57,33.23,36,24.77-12,34.51-44.35,34.51-44.35s.6,36.45-30.32,45.65C774.24,808.78,792,801,792,801Z"/><path class="cls-3" d="M753.92,876.33c-30.92-9.2-30.32-45.65-30.32-45.65s9.74,32.38,34.51,44.35c12.32-4.48,24.78-14.73,33.23-36,16.47,39.46-41.65,77.14-74.47,34.68C716.87,873.67,734.64,881.42,753.92,876.33Z"/><path class="cls-3" d="M790.79,942.85c-29.9,38.68-82.86,4.35-67.85-31.6,7.69,19.42,19,28.75,30.28,32.83,22.55-10.89,31.44-40.4,31.44-40.4s.54,33.21-27.63,41.59C774.6,949.92,790.79,942.85,790.79,942.85Z"/><path class="cls-3" d="M754.06,1010.88c-28.17-8.38-27.62-41.59-27.62-41.59s8.88,29.5,31.44,40.4c11.22-4.08,22.58-13.41,30.27-32.83,15,35.95-37.94,70.28-67.85,31.6C720.3,1008.46,736.5,1015.53,754.06,1010.88Z"/><path class="cls-3" d="M753.81,1069.78c16.82-8.13,23.44-30.12,23.44-30.12s.4,24.76-20.59,31c13.1,3.46,25.16-1.81,25.16-1.81-22.28,28.84-61.77,3.25-50.58-23.56C737,1059.78,745.44,1066.74,753.81,1069.78Z"/><path class="cls-3" d="M755.54,1169s-36.31-31.89-20.33-72.08C736.05,1141.1,755.54,1169,755.54,1169Z"/><path class="cls-3" d="M779.09,1101.59c16,25.39-20.33,45.52-20.33,45.52S778.26,1129.49,779.09,1101.59Z"/><path class="cls-2" d="M727.56,774.43s-61.93,6.08-47,79.17-29.46-130.1-29.46-130.1S717.25,701.79,727.56,774.43Z"/><path class="cls-3" d="M668.74,523.89s84.21-6.18,88,84.12,70.34,80,76,79.43-55.32,95.59-173.08,0S624.47,532,668.74,523.89Z"/><path class="cls-2" d="M668.72,523.49s2.7-.2,7.74,0a116.3,116.3,0,0,1,21.59,3.22c9.07,2.37,20.23,6.14,30.94,14.28a76.37,76.37,0,0,1,25.84,36.4q1.57,6,3.21,12.28c1,4.2,1.11,8.58,1.71,13q.35,3.21.7,6.48t.57,6.63c.19,2.23.39,4.47.58,6.73s.81,4.31,1.16,6.5.8,4.36,1.2,6.56,1.29,4.31,1.92,6.5,1.2,4.43,2.11,6.54l2.87,6.29c4.23,8.19,10,15.93,18,21.49a57.8,57.8,0,0,0,27.65,9.93,66.44,66.44,0,0,0,15.31,0l.48-.06.25,0s1,.07.66.06a1.62,1.62,0,0,1,1,.8,1.44,1.44,0,0,1,.17.74,3.09,3.09,0,0,1-.08.83,10.34,10.34,0,0,1-.84,2.09,31.17,31.17,0,0,1-2.1,3.5,74.82,74.82,0,0,1-4.94,6.35,94.93,94.93,0,0,1-56,30.6,103.22,103.22,0,0,1-32.77-.36,138.62,138.62,0,0,1-31.1-9.5c-19.77-8.66-37.29-20.68-53-33.64-3.86-3.21-7.73-6.3-11.39-9.83l-5.52-5.13-5.2-5.29c-3.52-3.43-6.6-7.26-9.82-10.85-2.95-3.85-6-7.5-8.59-11.51-10.74-15.46-17.82-33.28-17.25-50.4.41-17.18,8.53-31.51,17.59-41.12,9.1-9.85,19.11-15.87,27.41-20.29a113.23,113.23,0,0,1,20.32-8c2.43-.68,4.31-1.11,5.59-1.34l1.95-.4Zm.07.8-1.88.42c-1.27.24-3.13.7-5.52,1.41a94,94,0,0,0-19.86,8.46,89.36,89.36,0,0,0-25.39,21.32c-8.08,9.79-14.14,23.54-13.6,38.78s7,31.14,17.37,45.65c10.31,14.71,23.86,28.06,39,41,15,12.86,31.84,24.79,50.54,33.53S749,729,769.89,726.84a87.3,87.3,0,0,0,30-8.85,88.5,88.5,0,0,0,24.69-19,53.12,53.12,0,0,0,4.77-6.08,30,30,0,0,0,1.91-3.25,9.07,9.07,0,0,0,.62-1.55s0-.25,0-.14,0-.08.09.26,1,.58.65.5.35,0,.17,0l-.23,0-.48.06a82,82,0,0,1-15.82.36c-10.45-.8-20.89-3.6-29.76-9.2s-15.76-13.64-20.81-22.29L762.24,651c-1.09-2.23-1.76-4.6-2.61-6.89s-1.71-4.57-2.25-6.93-1-4.73-1.52-7.07-1.07-4.71-1.31-7-.42-4.5-.63-6.73q-.61-6.69-1.22-13.18c-.5-4.16-.51-8.37-1.38-12.31s-1.7-7.83-2.52-11.63c-4.28-14.93-12.28-27.33-22-35.63A77,77,0,0,0,697.69,528a95.25,95.25,0,0,0-21.27-3.68C671.44,524.12,668.8,524.29,668.79,524.29Z"/><path class="cls-2" d="M794.63,695.12c-5.71-.42-73-1.4-61.64-91,4.25-33.48-4.81-55.57-17.83-70.12C735.39,544.42,755,565.54,756.74,608c3.8,90.3,70.34,80,76,79.43,4.46-.42-31.86,58.21-104.16,38.19C771.83,726,798.06,695.38,794.63,695.12Z"/><path class="cls-3" d="M667.89,597.29s67.39,8,56.61,79.79,43.32,73.84,47.9,74.28-58.24,67-136.6-26.39S631.71,596.91,667.89,597.29Z"/><path class="cls-2" d="M667.93,596.89a62.25,62.25,0,0,1,6.12,1.16,96.53,96.53,0,0,1,16.6,5.79c6.81,3.24,15.12,7.83,22.43,15.9a61.72,61.72,0,0,1,15.21,32.8q.35,5,.7,10.26c.16,3.49-.41,7-.6,10.59-.15,1.72-.3,3.46-.44,5.21s-.37,3.53-.56,5.32-.38,3.59-.57,5.4,0,3.49-.08,5.26,0,3.52-.07,5.3.34,3.57.5,5.37.24,3.66.62,5.44.84,3.56,1.26,5.36a46.46,46.46,0,0,0,10.68,19.57,45.81,45.81,0,0,0,20.1,12.09,52,52,0,0,0,12,2.35l.39,0,.21,0s.9.24.59.17a1.64,1.64,0,0,1,.79,1,1.81,1.81,0,0,1,0,.69,2.66,2.66,0,0,1-.22.69,8.69,8.69,0,0,1-1,1.57,26.7,26.7,0,0,1-2.23,2.47,63.58,63.58,0,0,1-4.88,4.28,77.25,77.25,0,0,1-49,15.85,83.07,83.07,0,0,1-26-5.17,111.94,111.94,0,0,1-23.28-12.21c-14.39-9.86-26.45-22-36.94-34.68a187.53,187.53,0,0,1-14.42-19.41c-2.28-3.26-4.14-6.77-6.13-10.11-1.74-3.52-3.63-6.89-5-10.47-6.13-13.94-9-29.28-5.83-42.86s11.88-23.76,20.57-29.92c8.79-6.37,17.67-9.49,24.91-11.7a94.51,94.51,0,0,1,17.29-3.17c2-.16,3.59-.21,4.64-.2h1.63Zm-.08.8-1.54,0c-1,0-2.57.08-4.57.28a74.68,74.68,0,0,0-16.92,3.69,71.07,71.07,0,0,0-23.11,13.1,46.55,46.55,0,0,0-16.23,28.38c-1.8,11.91.92,25.29,6.85,38.23S626.8,707,636.75,719.56C646.53,732,658,743.94,671.3,753.68s28.77,17.18,45.49,18.76a69.85,69.85,0,0,0,24.9-2.26A70.87,70.87,0,0,0,764,759a39.32,39.32,0,0,0,4.67-4,24.24,24.24,0,0,0,2-2.24,7.83,7.83,0,0,0,.69-1.08s.07-.18,0,0,0,0,0,.3.88.82.58.67.38.08.22.06l-.19,0-.39,0a66.92,66.92,0,0,1-12.58-2.1c-8.18-2.22-16.08-6-22.31-11.76s-10.55-13.24-13.28-20.89c-.59-2-1.19-3.9-1.77-5.82s-.72-3.93-1.05-5.88-.68-3.91-.75-5.87-.09-3.92-.14-5.87-.13-3.92,0-5.75.36-3.62.53-5.41q.54-5.37,1.05-10.59c.24-3.34.88-6.64.81-9.86s-.11-6.39-.16-9.48c-1-12.34-5.26-23.29-11.57-31.33A61.13,61.13,0,0,0,690,605.09a75,75,0,0,0-16.19-6.19A60.48,60.48,0,0,0,667.85,597.69Z"/><path class="cls-3" d="M645.57,635.53l40.49.2L673.68,490.48h-400L261.3,635.73l40.49-.2-29.54,65.7h33.67L273.68,839.05s-59.3,184.21-13,291.62c30.95,71.84,212,253.86,212,253.86S666.09,1162.68,680,1130.67c46.5-107.46-6.27-291.62-6.27-291.62L641.45,701.23h33.68Z"/><path class="cls-2" d="M645.57,635.12l40.49-.49-1.1,1.2c-2.5-24.18-5-48.34-7.27-72.54l-6.94-72.56,2.93,2.69-100,.45-50,.19-50-.17c-33.33,0-66.66-.45-100-.81l-100-1.05,1.55-1.42-6.51,72.6-6,72.64-1.41-1.53,40.48-.43a1.62,1.62,0,0,1,1.64,1.61,1.74,1.74,0,0,1-.14.69l-29,66L272.25,699l33.67-.28a2.54,2.54,0,0,1,2.56,2.51,3.45,3.45,0,0,1-.05.57l0,.06L277.25,839.88l-.05.2,0,.09A743.25,743.25,0,0,0,258.63,916a660.34,660.34,0,0,0-10.36,77.38c-1,13-1.31,26-1.17,38.92a324.87,324.87,0,0,0,2.56,38.73,248.79,248.79,0,0,0,7.64,37.81l3,9.14c1.06,3,2.32,6,3.46,8.93,1,2.73,2.68,5.86,4,8.77l4.54,8.3a375.22,375.22,0,0,0,21.48,32.34q11.52,15.75,23.81,31c16.37,20.33,33.38,40.18,50.73,59.74,34.72,39.08,70.61,77.24,107.28,114.5l-6.08.2q62.77-72.21,124.2-145.58c20.35-24.54,40.65-49.16,60-74.37,4.81-6.32,9.57-12.66,14.08-19.12,2.23-3.23,4.43-6.49,6.36-9.75a41.39,41.39,0,0,0,2.43-4.78l2.21-5.56a226.24,226.24,0,0,0,11.93-45.36c5-31.1,5.18-62.95,3.33-94.57a732.81,732.81,0,0,0-12.38-94.37c-3-15.59-6.47-31.14-10.52-46.45-3.73-15.76-7.06-31.19-10.61-46.8l-21-93.4v0A2,2,0,0,1,641,699.3a2.3,2.3,0,0,1,.45,0l33.68.4-1.45,2.23-28.47-66.19a.4.4,0,0,1,.21-.53Zm.63.82,30.37,64.64a1.58,1.58,0,0,1-1.39,2.24h0l-33.68.4,1.93-2.44,22.62,93,11.35,46.38c4.24,15.5,7.85,31.1,11,46.8a743.29,743.29,0,0,1,13.32,95.21c2.26,32,2,64.4-3.07,96.37a233.85,233.85,0,0,1-12.34,47.07l-2.19,5.56a47.54,47.54,0,0,1-3,5.88c-2.13,3.61-4.4,7-6.69,10.31-4.63,6.62-9.44,13-14.3,19.42-19.48,25.43-39.79,50.06-60.17,74.66q-61.29,73.63-124.25,145.79a4.15,4.15,0,0,1-5.84.43l-.24-.23q-55.28-56.1-107.67-114.8c-17.42-19.62-34.51-39.56-51-60q-12.36-15.36-24.08-31.29a381.67,381.67,0,0,1-22-33.08c-7-11.75-11.85-24.12-15.67-37a256.67,256.67,0,0,1-7.77-39.16,333.21,333.21,0,0,1-2.47-39.64c-.09-13.23.32-26.44,1.34-39.59a672,672,0,0,1,10.78-78.26,746.88,746.88,0,0,1,19.06-76.66l-.08.28,33.31-137.56,2.49,3.14-33.67-.28h0a2.27,2.27,0,0,1-2.25-2.28,2.22,2.22,0,0,1,.21-.93l30.13-65.45,1.49,2.31-40.48,0a1.41,1.41,0,0,1-1.42-1.39v-.14L266.27,563l5.87-72.65a1.56,1.56,0,0,1,1.54-1.42l100-1.05c33.34-.35,66.67-.8,100-.81l50-.17,50,.19,100,.45h0a2.91,2.91,0,0,1,2.89,2.69l5.44,72.69c1.88,24.22,3.48,48.47,5.11,72.72v0a1.08,1.08,0,0,1-1,1.16h-.1Z"/><path class="cls-4" d="M295.55,870.4s111.57-4.93,153.16-112.51c-32.26-6.33-82.59,9.6-143,69.46C272.8,813,363.32,701.23,363.32,701.23l-39,15.5,31.28-62.47-17.13-14.17,24.87-27.9-51,14.61s-80.82-101,22.33-136.32c-9.79-11.68-61,0-61,0L261.3,635.73l40.49-.2-29.54,65.7h33.67L273.68,839.05s-59.3,184.21-13,291.62c29.28,68,192.82,234.48,210.41,252.28C237.72,1111.63,295.55,870.4,295.55,870.4Z"/><path class="cls-2" d="M261.83,629.46l6.6-77.26c-6.11,49.55-7.13,83.53-7.13,83.53l35.85-6.27Z"/><path class="cls-2" d="M445,474.18s-61.36,2.17-111.41,16.69C232.11,526.52,312.34,626.8,312.34,626.8s31.92,28.49,101.25-20.21C547.18,620.54,445,474.18,445,474.18Z"/><path class="cls-2" d="M490.34,474.18s61.37,2.17,111.41,16.69C703.21,526.52,623,626.8,623,626.8s28.41-70.39-105.19-56.44S490.34,474.18,490.34,474.18Z"/><path class="cls-4" d="M640.23,870.4s-111.57-4.93-153.15-112.51c32.26-6.33,82.59,9.6,143,69.46C663,813,572.46,701.23,572.46,701.23l39,15.5-31.29-62.47,17.12-14.17-24.87-27.9,51,14.61s80.81-101-22.34-136.32c9.8-11.68,75.92,19.3,75.92,19.3l12.66,133L634,635.53l41.13,65.7H629.88l43.66,132.71s47.87,189.32,1.6,296.73c-29.27,68-192.81,234.48-210.4,252.28C698.07,1111.63,640.23,870.4,640.23,870.4Z"/><path class="cls-2" d="M441.86,777.66c6.32-5.22,18.84-8.78,33.27-8.78,13.41,0,25.16,3.08,31.82,7.71,2.79-2.3,4.39-4.92,4.39-7.71,0-9.1-16.86-16.48-37.65-16.48S436,759.78,436,768.88C436,772.11,438.19,775.12,441.86,777.66Z"/><path class="cls-2" d="M457.77,798.6c3.16-3.1,9.42-5.21,16.64-5.21,6.7,0,12.57,1.83,15.91,4.57a6.46,6.46,0,0,0,2.18-4.57c0-5.4-8.42-9.77-18.81-9.77s-18.83,4.37-18.83,9.77A6.88,6.88,0,0,0,457.77,798.6Z"/><path class="cls-2" d="M560.38,811.42c2.82,4.87,90.57,59,90.57,59l5.78,74,22.08-85.23S665,840.85,655.16,835.27C611.81,842.39,560.38,811.42,560.38,811.42Z"/><path class="cls-2" d="M386.12,811.42c-2.81,4.87-90.57,59-90.57,59l-8.62,66.75-19.24-78s9.38-18.28,19.24-23.86C330.28,842.39,386.12,811.42,386.12,811.42Z"/><path class="cls-2" d="M442.42,669.86c-4.67-26.09-31.25-.18-1.69,20.42-35.65-9-25.57-55.81,2-41.52l14.61-103.15c8.18-7.46,8.44-17,8.44-25.14,0-31.92-44.14-57.8-98.59-57.8s-98.58,25.88-98.58,57.8a36.63,36.63,0,0,0,5.09,18.31c33.07-28.22,59.41-39.36,61.4-13.28,43.24,0,24.56,34.27,82.41,44.86l-21.25,13.95,28.78.62L381,606.59h32.64l-36,94.64h97.14v-4.87C448.31,694.15,442.42,669.86,442.42,669.86Z"/><path class="cls-3" d="M408.06,561.55c-.56,8.47-17.8-1.69-38.12-3-28,5.79-43.58-9.28-43-17.75s4.94-20.42,37.81-12.89C384.66,532.45,408.62,553.08,408.06,561.55Z"/><path class="cls-2" d="M408.45,561.6a4,4,0,0,1-1,2.57,4.18,4.18,0,0,1-2.55,1.14,18.89,18.89,0,0,1-5.26,0c-3.46-.31-6.87-.78-10.25-1.13-6.78-.7-13.29-1.51-19.68-2.09l1-.07a47.44,47.44,0,0,1-20.33-.57,46.89,46.89,0,0,1-18.1-8.74,22,22,0,0,1-6.35-8.19,11.5,11.5,0,0,1-.74-2.77,24.89,24.89,0,0,1,0-2.71,21.24,21.24,0,0,1,1-5.4,15.38,15.38,0,0,1,7.39-8.69,26.48,26.48,0,0,1,10.54-3,62.88,62.88,0,0,1,10.37.08,99.69,99.69,0,0,1,10,1.45,49.54,49.54,0,0,1,9.95,3.07,74.06,74.06,0,0,1,9.06,4.73,60.57,60.57,0,0,1,8.09,6,86.66,86.66,0,0,1,7,7.19,83.51,83.51,0,0,1,6.09,7.9c1.73,2.76,3.83,5.59,3.82,9.16Zm-.79-.08c-.1-3-2.22-5.78-4.32-8.06A44.61,44.61,0,0,0,396,547.4a90,90,0,0,0-8.15-4.88q-4.12-2.29-8.27-4.37a82.8,82.8,0,0,0-8.37-3.75,52.83,52.83,0,0,0-8.58-2.62c-3.05-.73-6.07-1.4-9.12-1.88a54.17,54.17,0,0,0-9-.68c-5.85.14-11.43,1.39-14.06,6.22a15.08,15.08,0,0,0-1.43,4c-.14.84-.3,1.59-.33,2.13a8,8,0,0,0,.22,2,15.19,15.19,0,0,0,4.94,7.32,24,24,0,0,0,8,4.62,31.28,31.28,0,0,0,9.13,1.69c6.2.33,12.27-.81,18.24-2.08a3,3,0,0,1,.84-.07h.12a60.07,60.07,0,0,1,20.26,5c3.18,1.28,6.31,2.62,9.51,3.59a16.87,16.87,0,0,0,4.82.72,2.81,2.81,0,0,0,2.89-2.83Z"/><path class="cls-2" d="M504.94,669.86c4.67-26.09,31.25-.18,1.69,20.42,35.66-9,25.58-55.81-2-41.52L490,545.61c-8.17-7.46-8.43-17-8.43-25.14,0-31.92,44.14-57.8,98.58-57.8s98.58,25.88,98.58,57.8a36.61,36.61,0,0,1-5.08,18.31c-33.07-28.22-59.42-39.36-61.4-13.28-43.24,0-24.57,34.27-82.42,44.86l21.26,13.95-28.79.62,44.11,21.66H533.77l36,94.64H472.61v-4.87C499.05,694.15,504.94,669.86,504.94,669.86Z"/><path class="cls-3" d="M539.3,561.55c.56,8.47,17.81-1.69,38.13-3,28,5.79,43.57-9.28,43-17.75s-4.92-20.42-37.79-12.89C562.7,532.45,538.73,553.08,539.3,561.55Z"/><path class="cls-2" d="M539.7,561.51a2.82,2.82,0,0,0,2.89,2.81,16.87,16.87,0,0,0,4.82-.72c3.2-1,6.33-2.31,9.52-3.59a60.3,60.3,0,0,1,20.26-5h.1a3,3,0,0,1,.85.07c6,1.27,12.05,2.41,18.25,2.08a31.27,31.27,0,0,0,9.12-1.69,24.15,24.15,0,0,0,8-4.62,15.28,15.28,0,0,0,4.93-7.32,8,8,0,0,0,.22-2c0-.54-.19-1.3-.33-2.14a14.88,14.88,0,0,0-1.43-3.95c-2.62-4.84-8.21-6.08-14-6.22a54.2,54.2,0,0,0-9,.68c-3,.49-6.07,1.16-9.12,1.88a53.41,53.41,0,0,0-8.57,2.62,82,82,0,0,0-8.38,3.75c-2.76,1.38-5.52,2.85-8.27,4.37a89.19,89.19,0,0,0-8.15,4.89,43.65,43.65,0,0,0-7.36,6.05C541.92,555.74,539.8,558.48,539.7,561.51Zm-.79,0c0-3.56,2.08-6.38,3.8-9.14a87,87,0,0,1,6.09-7.9,90,90,0,0,1,7-7.19,61.44,61.44,0,0,1,8.09-6,72.08,72.08,0,0,1,9.07-4.72,48.63,48.63,0,0,1,9.94-3.07,96.9,96.9,0,0,1,10-1.46A62.88,62.88,0,0,1,603.3,522a26.67,26.67,0,0,1,10.54,2.95,15.5,15.5,0,0,1,7.4,8.7,21.15,21.15,0,0,1,1,5.4,25.2,25.2,0,0,1,0,2.71,10.86,10.86,0,0,1-.73,2.77,21.92,21.92,0,0,1-6.35,8.19A46.84,46.84,0,0,1,597,561.42a47.48,47.48,0,0,1-20.34.57l.95.07c-6.38.58-12.9,1.39-19.68,2.09-3.38.35-6.79.83-10.24,1.13a19,19,0,0,1-5.27,0,4.18,4.18,0,0,1-2.55-1.14,3.9,3.9,0,0,1-1-2.57Z"/><path class="cls-3" d="M410.88,545.19s-12.79-25.68-82-37.6c0,0,21.88-5.66,58.67,7.63C402.87,512.56,424.83,523.71,410.88,545.19Z"/><path class="cls-3" d="M536.93,545.19s12.78-25.68,82-37.6c0,0-21.88-5.66-58.67,7.63C544.94,512.56,523,523.71,536.93,545.19Z"/><path class="cls-2" d="M661.23,518.46s32,26,13.93,109.7c-16.75-29.24-60.5,2.32-95.28-16,0,0,82.71,34.57,77.29,77.09,0,0-29.28-55.72-61.69-29.23,25.41,26.57,51,42.52,47.45,94.33,0,0-3.81-89-169.25-53.15,0,0,92.81-31.88,127.12,31.89s64.14,34.55,72.67,120.48c0,0,23.51-62-15.2-140.75,0,0,29.05,20.27,33.88,49.51,16-17.28,9.1-61.5-14.48-99.66,0,0,27.85,37.34,77,23.33-27.89-10-46.5-23.33-42.51-61.86C712.17,624.17,726.64,551.74,661.23,518.46Z"/><path class="cls-2" d="M286.14,518.46s-32,26-13.93,109.7c16.75-29.24,56.33,2.32,91.11-16,0,0-78.55,34.57-73.13,77.09,0,0,29.28-55.72,61.69-29.23-25.4,26.57-51,42.52-47.44,94.33,0,0,3.8-89,169.25-53.15,0,0-92.82-31.88-127.12,31.89s-64.14,34.55-72.68,120.48c0,0-23.5-62,15.2-140.75,0,0-29,20.27-33.88,49.51-16-17.28-9.09-61.5,14.48-99.66,0,0-27.85,37.34-77,23.33,27.9-10,46.5-23.33,42.52-61.86C235.2,624.17,220.73,551.74,286.14,518.46Z"/><path class="cls-2" d="M286.93,835.27l-6.24-11,17.47-36.94L304.09,709l-30.41,130s-59.3,184.21-13,291.62c29.29,68,192.91,234.57,210.42,252.3-14.69-17.73-152-184.32-176.55-252.3C255.7,1023.26,286.93,835.27,286.93,835.27Z"/><path class="cls-2" d="M461.72,751.56l-53.65,8s-44,89-121.14,75.74c96.94,10.62,133.87-63.78,133.87-63.78Z"/><path class="cls-2" d="M438.14,794.09s-55.59,176.7-45,276.36C364,929.6,438.14,794.09,438.14,794.09Z"/><path class="cls-2" d="M356.74,1072.63s-3.24,81.47,18.44,117.9C336.58,1142.27,356.74,1072.63,356.74,1072.63Z"/><path class="cls-2" d="M320.23,1091c0,65.55,31.25,104.3,36.8,124.24C313.8,1169.51,320.23,1091,320.23,1091Z"/><path class="cls-2" d="M383.14,864.28S346.6,980.47,353.58,1046C334.36,953.38,383.14,864.28,383.14,864.28Z"/><polygon class="cls-2" points="274.33 944.22 295.6 1035.9 305.68 944.22 318.77 1081.08 333.18 966.81 349.09 1012.64 366.12 912.33 344.41 955.13 333.18 911 320.23 955.13 301.5 894.17 290.63 966.81 274.33 944.22"/><path class="cls-2" d="M663.57,858.52l-23.91-22.26,28.11-1.93L638,709l35.54,124.93s54.18,189.32,7.91,296.73c-29.27,68-192.89,234.57-210.4,252.3,14.69-17.73,152-184.32,176.54-252.3C686.4,1023.26,663.57,858.52,663.57,858.52Z"/><path class="cls-2" d="M480.38,751.56l53.64,8s44,89,121.14,75.74c-96.94,10.62-133.86-63.78-133.86-63.78Z"/><path class="cls-2" d="M504,794.09s57.56,143.31,46.92,243C580.13,896.2,504,794.09,504,794.09Z"/><path class="cls-2" d="M585.36,1072.63s3.24,81.47-18.44,117.9C605.51,1142.27,585.36,1072.63,585.36,1072.63Z"/><path class="cls-2" d="M621.87,1091c-7,52.45-12.24,84-36.8,124.24C628.3,1169.51,621.87,1091,621.87,1091Z"/><path class="cls-2" d="M559,864.28S595.5,980.47,588.52,1046C607.73,953.38,559,864.28,559,864.28Z"/><polygon class="cls-2" points="667.77 944.22 646.5 1035.9 636.41 944.22 623.33 1081.08 608.92 966.81 593 1012.64 575.98 912.33 597.68 955.13 608.92 911 621.87 955.13 640.6 894.17 651.47 966.81 667.77 944.22"/><path class="cls-2" d="M449.13,1356.09c-34.42-74.19-7.67-122.65,115-161.19C564.14,1194.9,412.94,1245.6,449.13,1356.09Z"/><path class="cls-2" d="M578.77,1222.81s-48.72,64.31-79.06,80.6C546.77,1286,578.77,1222.81,578.77,1222.81Z"/><path class="cls-2" d="M456.37,1256.77c-28.3-61-6.31-113.46,94.51-145.14C550.88,1111.63,426.63,1166,456.37,1256.77Z"/><path class="cls-2" d="M562.34,1131.58s-40.06,52.86-65,66.25C536,1183.48,562.34,1131.58,562.34,1131.58Z"/><path class="cls-2" d="M456.66,1184.2c-28.3-61,35.51-139.89,136.34-171.56C593,1012.64,426.92,1093.39,456.66,1184.2Z"/><path class="cls-2" d="M456.3,1275.5c2.13-60.22-21-110.79-93-149.14C363.32,1126.36,458.43,1197.83,456.3,1275.5Z"/><path class="cls-2" d="M456.43,1200.93c8.66-54.63-15-102.5-63.25-130.48C393.18,1070.45,458.55,1123.26,456.43,1200.93Z"/><path class="cls-2" d="M465,1375.56l7.66,9c15.05-48.34,5.15-79.18,5.15-79.18S479.17,1356.09,465,1375.56Z"/><path class="cls-2" d="M393.18,962.38s25.34,56.08,65,76.77C420.91,999.39,393.18,962.38,393.18,962.38Z"/><path class="cls-2" d="M551.75,937.51s-73.85,112.14-139.49,146.07C473.94,1018.36,551.75,937.51,551.75,937.51Z"/><path class="cls-2" d="M412.68,879.26s13,48.57,49,57.89C433.59,907.16,412.68,879.26,412.68,879.26Z"/><path class="cls-2" d="M532.24,860.49S462.66,962,413.15,987.63C459.67,938.45,532.24,860.49,532.24,860.49Z"/><path class="cls-2" d="M431.32,827.35s9.23,34.46,34.77,41.06C446.16,847.14,431.32,827.35,431.32,827.35Z"/><path class="cls-2" d="M516.12,814.05s-49.35,72-84.46,90.16C464.65,869.33,516.12,814.05,516.12,814.05Z"/><path class="cls-3" d="M420.69,548.36c10.36,64-24.22,58.22-64.64,64.77s-74.41-40.57-79.15-69.8c.31-23.86,21.58-29.5,62-36S410.89,487.84,420.69,548.36Z"/><path class="cls-2" d="M421.09,548.3c.55,4.71,1.46,9.35,1.73,14.1l.51,7.15-.08,7.21c-.08,2.41-.61,4.8-.9,7.24a66.49,66.49,0,0,1-2.11,7.14c-2.17,4.48-5,9-9.3,12-4,3.37-8.85,5.18-13.53,6.83a109.17,109.17,0,0,1-14.29,3.07c-4.76.67-9.48,1.26-14.17,1.71s-9.07,1.09-14.25,1.4a63.56,63.56,0,0,1-7.2.1c-2.54-.32-5.14-.43-7.56-1s-4.81-1.19-7.11-2-4.55-1.83-6.73-2.9l-6.34-3.55-5.95-4.11-5.58-4.55L303,593.24a127.87,127.87,0,0,1-9.49-10.78,123.2,123.2,0,0,1-8.23-11.81,98.92,98.92,0,0,1-6.7-12.84,77.29,77.29,0,0,1-4.6-14,1.53,1.53,0,0,1,0-.36v-.16a34.69,34.69,0,0,1,2.3-12.84,28.57,28.57,0,0,1,8.17-10.57,49.42,49.42,0,0,1,11.1-6.4,108.78,108.78,0,0,1,11.65-4,234,234,0,0,1,23.46-5.16l23.31-3.92A140.34,140.34,0,0,1,378,497.91a50.84,50.84,0,0,1,12.49,1.53c2.09.34,4.05,1.46,6,2.17a45,45,0,0,1,5.52,3.27c1.67,1.31,3.15,2.87,4.69,4.28,1.31,1.62,2.5,3.34,3.73,5a54.64,54.64,0,0,1,5,11c1.53,3.71,2.27,7.64,3.3,11.47S420.32,544.42,421.09,548.3Zm-.79.11c-.87-3.83-1.54-7.71-2.55-11.5-1.29-3.7-2.2-7.55-4-11A51.83,51.83,0,0,0,407.8,516c-1.3-1.37-2.53-2.78-3.84-4.09-1.52-1.06-2.93-2.24-4.48-3.18a40.89,40.89,0,0,0-5-2.16c-1.79-.36-3.41-1.13-5.28-1.18a49.5,49.5,0,0,0-11-.27,196,196,0,0,0-22.81,3.42c-7.74,1.56-15.61,2.93-23.33,4.16s-15.42,2.59-22.86,4.45a102.67,102.67,0,0,0-10.85,3.31,42.13,42.13,0,0,0-9.52,5.06,22.27,22.27,0,0,0-6.6,7.61,28.6,28.6,0,0,0-2.36,10.2l0-.51A71.83,71.83,0,0,0,283,556.1a87.14,87.14,0,0,0,5.48,12.75,90.18,90.18,0,0,0,7.26,11.93,93.17,93.17,0,0,0,9,10.75c1.69,1.61,3.33,3.28,5.1,4.79l5.5,4.31,5.91,3.69q3.11,1.56,6.26,3c2.14.81,4.37,1.42,6.52,2.14s4.48.83,6.69,1.27,4.39.17,6.55.32a61.51,61.51,0,0,0,6.95-.7c1.88-.19,4.57-.83,6.82-1.22s4.7-.75,7.06-1.12l14-2c4.62-.66,9.13-1.43,13.52-2.5a42.53,42.53,0,0,0,12.15-4.86c3.86-2.07,6.57-5.52,9-9.22a64.6,64.6,0,0,0,2.6-6.22c.52-2.22,1.27-4.42,1.61-6.71l.79-7-.06-7C421.7,557.8,420.72,553.11,420.3,548.41Z"/><path class="cls-3" d="M407.52,550.53c8.4,51.91-19.63,47.21-52.42,52.51s-60.33-32.89-64.17-56.58c.25-19.36,17.5-23.93,50.28-29.23S399.58,501.46,407.52,550.53Z"/><path class="cls-2" d="M407.91,550.48c.47,3.81,1.2,7.57,1.45,11.44l.46,5.8v5.86c-.05,2-.45,3.93-.67,5.93a54.39,54.39,0,0,1-1.66,5.87c-1.74,3.71-4.08,7.51-7.58,10-3.28,2.83-7.26,4.34-11.09,5.73a86.65,86.65,0,0,1-11.66,2.54c-3.88.54-7.71,1-11.51,1.36s-7.3.82-11.6,1a51.7,51.7,0,0,1-5.85,0,61.87,61.87,0,0,1-6.23-.87c-2-.57-3.93-1-5.8-1.71s-3.71-1.53-5.48-2.41l-5.15-2.93-4.83-3.38-4.53-3.71-4.25-4a108.84,108.84,0,0,1-7.74-8.74,107,107,0,0,1-6.77-9.56,83.11,83.11,0,0,1-5.55-10.43A62.87,62.87,0,0,1,288,546.94a1.4,1.4,0,0,1-.05-.34v-.18a28.41,28.41,0,0,1,1.85-10.66,24,24,0,0,1,6.77-8.86,40.6,40.6,0,0,1,9.15-5.31,87.34,87.34,0,0,1,9.53-3.28,186.72,186.72,0,0,1,19.09-4.25l18.89-3.15a110.17,110.17,0,0,1,19.65-2,42.15,42.15,0,0,1,10.26,1.35,29.42,29.42,0,0,1,9.5,4.62c1.37,1.1,2.57,2.4,3.82,3.57,1.06,1.35,2,2.77,3,4.13a44.31,44.31,0,0,1,4,9,79.17,79.17,0,0,1,2.61,9.35C406.83,544.14,407.3,547.33,407.91,550.48Zm-.79.11c-.7-3.11-1.26-6.24-2.08-9.31-1.08-3-1.83-6.1-3.35-8.88a41.31,41.31,0,0,0-4.87-7.89c-1.06-1.09-2.07-2.21-3.13-3.23-1.23-.83-2.37-1.76-3.61-2.49a24.3,24.3,0,0,0-8.18-2.51,40.46,40.46,0,0,0-8.81-.09A168.91,168.91,0,0,0,354.71,519c-6.27,1.3-12.67,2.41-18.92,3.4s-12.48,2.06-18.48,3.55a78,78,0,0,0-8.72,2.62,33.35,33.35,0,0,0-7.57,4,17.39,17.39,0,0,0-5.2,5.88,22.82,22.82,0,0,0-1.93,8l0-.51a58.16,58.16,0,0,0,2.44,10.66A69.35,69.35,0,0,0,300.63,567a73,73,0,0,0,13,18.4c1.36,1.31,2.69,2.66,4.13,3.88l4.44,3.47,4.8,2.95q2.5,1.25,5.06,2.36c1.74.64,3.53,1.11,5.27,1.67s3.61.62,5.38.95,3.5.09,5.22.2a49.9,49.9,0,0,0,5.61-.63c1.44-.16,3.68-.7,5.49-1s3.82-.63,5.73-.94c3.8-.65,7.6-1,11.31-1.64s7.36-1.13,10.88-2a34.34,34.34,0,0,0,9.73-3.75c3.09-1.59,5.27-4.28,7.26-7.21a49.93,49.93,0,0,0,2.15-4.95c.44-1.78,1.08-3.55,1.37-5.39l.71-5.63V562C408.25,558.2,407.45,554.4,407.12,550.59Z"/><path class="cls-2" d="M333.3,528.19c21.09-3.41,25.52,24,46.59,20.59,12.25-2,15.91-12,20.94-20.8-.43-.84-.88-1.64-1.34-2.4-4.68,8.45-8.56,17.64-20.21,19.52-21.08,3.42-25.52-24-46.61-20.58S316,555.34,295,558.76l.25,1.5c.29.68.61,1.35.93,2C316.53,558.44,312.43,531.57,333.3,528.19Z"/><path class="cls-2" d="M378.56,540.55l.12,0h.09c7.18-1.16,12.41-5.87,11.66-10.51s-7.2-7.46-14.38-6.3q-.82.13-1.62.33v.06c-3,1-5.06,3.15-4.71,5.31.4,2.51,3.89,4,7.79,3.41s6.62-3.1,6.32-5.57a4.19,4.19,0,0,1,1.88,2.78c.48,3-2.89,6.05-7.55,6.8a30,30,0,0,1-4.53.33c-12.87-.48-19.11-13.24-29.28-18.71l-7.82,1.27C353.82,520.6,359.11,543.7,378.56,540.55Z"/><path class="cls-2" d="M333.8,532.79l-.1,0-.1,0c-7.2,1.16-12.42,5.87-11.66,10.51s7.18,7.46,14.38,6.3c.55-.1,1.09-.21,1.62-.34v-.06c3-1,5.06-3.15,4.71-5.3-.41-2.52-3.9-4-7.8-3.41s-6.6,3.09-6.32,5.57a4.24,4.24,0,0,1-1.88-2.78c-.49-3,2.89-6.06,7.55-6.81a30.55,30.55,0,0,1,4.54-.32c12.87.48,19.11,13.23,29.27,18.7l7.83-1.27C358.54,552.74,353.26,529.64,333.8,532.79Z"/><path class="cls-2" d="M299.48,540.89a4.25,4.25,0,0,1,1.89,2.78c.49,3-2.9,6.05-7.57,6.81l.41,3.72.11,0h.08c7.2-1.16,12.42-5.87,11.67-10.52-.71-4.4-6.56-7.12-13.3-6.4a20.08,20.08,0,0,0-.76,2.1l1.15,7.11C297,545.84,299.78,543.36,299.48,540.89Z"/><path class="cls-2" d="M320.61,547.91c-.88,14.79-19.81,17.86-19.81,17.86L349.07,558S324.94,561.86,320.61,547.91Z"/><path class="cls-2" d="M391.77,525.42a15.49,15.49,0,0,1,2-6.79,25.32,25.32,0,0,0-14.23-5.87l-16.2,2.62S387.43,511.47,391.77,525.42Z"/><path class="cls-2" d="M307.21,539.11c.88-14.79,19.81-17.85,19.81-17.85L310.23,524a37.84,37.84,0,0,0-12.2,6.39C302.19,531.85,305.78,534.51,307.21,539.11Z"/><path class="cls-2" d="M390.58,585.76c-21.08,3.41-25.52-24-46.61-20.58-15.15,2.45-17.15,17.26-24.88,26.69.71.57,1.4,1.17,2.13,1.7,6.57-9.4,9.25-22.43,23.38-24.72,21.08-3.41,25.52,24,46.6,20.59,9.17-1.49,13.51-7.52,17.24-14.13a54.46,54.46,0,0,0,.52-5.77C405,576.94,400.71,584.12,390.58,585.76Z"/><path class="cls-2" d="M389.46,577.48a31.27,31.27,0,0,1-4.53.33c-12.87-.48-19.1-13.25-29.27-18.71l-7.82,1.27c17.28.88,22.57,24,42,20.83l.11,0h.09c7.19-1.16,12.42-5.87,11.67-10.52s-7.2-7.46-14.39-6.3c-.54.09-1.08.21-1.61.34v.06c-3,1-5.06,3.15-4.72,5.3.41,2.51,3.9,4,7.8,3.41s6.61-3.09,6.31-5.56a4.18,4.18,0,0,1,1.89,2.77C397.5,573.68,394.12,576.73,389.46,577.48Z"/><path class="cls-2" d="M387.12,594.28c-17.28-.88-22.57-24-42-20.83l-.1,0h-.1c-7.19,1.17-12.41,5.87-11.66,10.51s7.19,7.47,14.39,6.3c.55-.09,1.09-.2,1.61-.33v-.07c3-1,5-3.14,4.7-5.29-.41-2.52-3.89-4-7.79-3.41s-6.6,3.09-6.33,5.57a4.33,4.33,0,0,1-1.88-2.78c-.48-3,2.9-6.06,7.56-6.81a31.75,31.75,0,0,1,4.54-.33c12.86.49,19.1,13.24,29.27,18.71Z"/><path class="cls-2" d="M310.78,581.54a4.34,4.34,0,0,1,1.9,2.79,3.82,3.82,0,0,1-.16,1.64c1.12,1.14,2.27,2.23,3.44,3.29a6.51,6.51,0,0,0,1.4-5c-.66-4.09-5.73-6.76-11.86-6.55q2.28,3,4.81,5.8A3.41,3.41,0,0,0,310.78,581.54Z"/><path class="cls-2" d="M331.9,588.57a15.59,15.59,0,0,1-3.75,9.34,47.71,47.71,0,0,0,10.51,4.21l21.71-3.51S336.23,602.52,331.9,588.57Z"/><path class="cls-2" d="M374.61,556s24.12-3.91,28.45,10a15.73,15.73,0,0,1,5.15-10.77c-.19-1.48-.41-3-.67-4.61Z"/><path class="cls-2" d="M301.39,569.39c6.9.58,14.81,3,17.11,10.38.89-14.8,19.81-17.86,19.81-17.86l-37.17,6Z"/><path class="cls-4" d="M385.25,514c4.58,5.83,8.07,14.77,10.23,28.15,8.41,51.91-19.63,47.21-52.41,52.52-9.52,1.54-18.58-.66-26.77-5,10.86,9.65,24.31,15.81,38.8,13.46,32.79-5.3,60.82-.6,52.42-52.51C403.73,527.13,395.93,517.28,385.25,514Z"/><path class="cls-3" d="M514.39,105c0,23.93-19.41,30.49-43.33,30.49s-43.32-6.56-43.32-30.49c10.4-20.4,18.28-59.71,43.32-91.82C492.69,45.24,504.27,84.55,514.39,105Z"/><path class="cls-2" d="M514.79,105a29.83,29.83,0,0,1-2,15.48,26.43,26.43,0,0,1-11.05,12,46.66,46.66,0,0,1-15.14,5.32A85.5,85.5,0,0,1,471,139c-2.47,0-5.19-.09-7.74-.37a64.4,64.4,0,0,1-7.77-1.14,48.94,48.94,0,0,1-14.93-5.55,27.65,27.65,0,0,1-10.94-11.69,34.66,34.66,0,0,1-3.11-15.3,1.27,1.27,0,0,1,.13-.55,156.91,156.91,0,0,0,8.86-23.7c2.57-8.1,4.93-16.32,7.9-24.38a193.42,193.42,0,0,1,10.42-23.68c2-3.86,4.15-7.62,6.45-11.32s4.78-7.31,7.41-10.8a4.21,4.21,0,0,1,5.88-.83,4.6,4.6,0,0,1,1,1.07c2.36,3.62,4.74,7.25,6.88,11s4.16,7.56,6,11.42c3.89,7.68,7.11,15.63,10.28,23.55s5.93,16,8.63,24,5.28,16.09,8.32,24c0,0,0,.09,0,.13ZM514,105c-2.18-3.62-4.17-7.36-6.06-11.13s-3.75-7.65-5.53-11.51l-10.68-23c-3.55-7.64-7.45-15.08-11.38-22.45-1.95-3.69-4-7.3-6.18-10.86S469.8,19,467.54,15.5l6.87.24c-2.44,3.32-5,6.55-7.28,10s-4.56,6.93-6.59,10.56-4,7.31-5.92,11-3.71,7.51-5.47,11.33L444,70.23,439,82c-3.36,7.83-6.33,15.82-10.18,23.54l.13-.54a27.79,27.79,0,0,0,3.41,13.86,22.6,22.6,0,0,0,10.44,9,43.69,43.69,0,0,0,13.74,3.43c2.4.22,4.79.46,7.22.53s4.78.14,7.34.13a114,114,0,0,0,14.47-.88,46.6,46.6,0,0,0,13.53-3.67,23.9,23.9,0,0,0,10.32-8.72C512,114.76,513.26,110,514,105Z"/><path class="cls-2" d="M487.93,112.86c3.51-4.09,5.65-10.42,5.65-20,0-20.8-11.28-51.88-22.52-79.77C458,41,448.55,72.1,448.55,92.9c0,9.54,2.13,15.87,5.64,20h-7.33v7.91h48.41v-7.91Z"/><rect class="cls-3" x="443.88" y="131.11" width="54.36" height="24.24"/><path class="cls-2" d="M443.88,130.7a114.39,114.39,0,0,1,13.58-2.16c4.54-.46,9.07-.79,13.59-.9a101.07,101.07,0,0,1,13.59.28c4.54.44,9.06,1.09,13.59,1.59l.32,0a1.46,1.46,0,0,1,1.29,1.57,102.23,102.23,0,0,0-.35,12.12c.09,4,.54,8.08.93,12.12a2,2,0,0,1-1.74,2.13l-.45.05c-4.53.5-9.05,1.05-13.59,1.28l-13.58.62c-4.53.19-9.06.24-13.6.12s-9-.35-13.58-.67l-.53,0a3.25,3.25,0,0,1-3-3.47v0c.33-4,.7-8.08,1.2-12.12s1.13-8.08,1.94-12.12A.54.54,0,0,1,443.88,130.7Zm.47.88c.77,3.88,1.38,7.77,1.87,11.65.49,4,.87,8.08,1.19,12.12l-3.53-3.54c4.53-.32,9.06-.55,13.58-.66s9.07-.07,13.6.12l13.58.62c4.54.22,9.06.78,13.59,1.28l-2.18,2.18c.39-4,.83-8.08.93-12.12a102.23,102.23,0,0,0-.35-12.12l1.6,1.59c-4.53.5-9.05,1.15-13.59,1.6a102.74,102.74,0,0,1-13.59.27c-4.52-.11-9.05-.44-13.59-.9A114.85,114.85,0,0,1,444.35,131.58Z"/><polygon class="cls-2" points="470.39 135.01 470.39 151.76 481.69 151.76 484.92 135.01 470.39 135.01"/><polygon class="cls-2" points="486.93 135.01 484.5 151.76 492.99 151.76 492.61 135.01 486.93 135.01"/><rect class="cls-3" x="432.59" y="151.83" width="76.94" height="52.04"/><path class="cls-2" d="M432.59,151.44c6.41-.65,12.82-.95,19.23-1.43s12.82-.69,19.24-.9c12.82-.51,25.64-.72,38.47-.84a3.54,3.54,0,0,1,3.56,3.5h0v.06a96.18,96.18,0,0,1-.59,13l-1.39,13a120.06,120.06,0,0,0-.32,13c.09,4.34.55,8.68.92,13A2,2,0,0,1,509.9,206h0l-.35,0c-6.41.49-12.83,1.05-19.24,1.28l-19.23.6c-3.2.09-6.41.21-9.62.19s-6.41.07-9.62,0c-6.41-.11-12.82-.35-19.23-.67h-.3a3.42,3.42,0,0,1-3.24-3.52q.46-13,1.25-26c.44-8.68,1.09-17.35,1.89-26A.43.43,0,0,1,432.59,151.44Zm.43.82c.78,8.53,1.43,17.07,1.86,25.6s.94,17.34,1.25,26l-3.54-3.54c6.41-.31,12.82-.56,19.23-.66,3.21-.12,6.42,0,9.62-.05s6.42.09,9.62.19l19.23.6c6.41.23,12.83.78,19.24,1.27l-2.19,2.19c.39-4.34.83-8.68.93-13a122.66,122.66,0,0,0-.32-13l-1.4-13a97.83,97.83,0,0,1-.59-13l3.57,3.57c-12.83-.12-25.65-.33-38.47-.84-6.42-.21-12.82-.54-19.24-.9C445.56,153.19,439.29,152.88,433,152.26Z"/><rect class="cls-4" x="432.59" y="151.83" width="23.86" height="52.04"/><polygon class="cls-2" points="481.68 155.74 481.68 200.29 492.99 200.29 496.21 155.74 481.68 155.74"/><polygon class="cls-2" points="498.2 155.74 495.79 200.29 504.27 200.29 503.9 155.74 498.2 155.74"/><path class="cls-3" d="M711.46,401.31s227.25,0,227.16-118.37c.09-199.86-409-140.51-325.09-279.58C575.36,43.22,571,82.19,623.28,114.08c0,0,284.34,144.43,97.84,154.69Z"/><path class="cls-2" d="M711.9,400.88q23.64-1,47.1-4.11c15.76-2.1,31.45-4.66,46.93-8.13a340.55,340.55,0,0,0,45.5-13.31c14.74-5.56,29.13-12.15,42.05-20.92s24.18-19.78,31.75-33.08,10.25-28.7,9.72-44.21c0-4.07-.61-7.71-.89-11.58-.68-3.8-1.06-7.68-2.09-11.42a105.65,105.65,0,0,0-7.49-21.92,121.38,121.38,0,0,0-27.16-37.62c-11.27-10.91-24.3-20-38-28A322.7,322.7,0,0,0,816.5,146c-14.73-6-29.79-11.17-44.92-16.12-15.19-4.8-30.49-9.23-45.78-13.72s-30.61-9-45.81-13.94-30.3-10.5-44.58-18.15a100.61,100.61,0,0,1-20.16-13.82,47.7,47.7,0,0,1-14-20.72c-2.79-8.18-2.36-17.1-.29-25.18a90.25,90.25,0,0,1,9.73-22.74l5.24,4-5.48,6.19c-1.85,2-3.42,4.29-5.14,6.42S602.14,22.7,600.6,25a66.34,66.34,0,0,0-4.2,6.94,56.06,56.06,0,0,0-3.52,7.23,53.8,53.8,0,0,0-2.65,7.49c-.94,2.5-1,5.14-1.59,7.69a74.47,74.47,0,0,0-.3,7.75c.46,2.54.32,5.17,1.19,7.62A35.2,35.2,0,0,0,592,77l1.6,3.54,2.12,3.32a39.67,39.67,0,0,0,4.72,6.32,45.48,45.48,0,0,0,5.5,5.79l2.9,2.78,3.19,2.5a72.58,72.58,0,0,0,6.52,4.86l6.84,4.48-.28-.16c21.31,10.82,42,22.63,62.31,35S727.74,171,746.55,186a202.25,202.25,0,0,1,26.5,24.68,81.48,81.48,0,0,1,10.77,15.2A36.42,36.42,0,0,1,787.3,235a21.78,21.78,0,0,1,.13,10.38c-1.64,7.21-7.34,12.32-12.83,15.3a70.74,70.74,0,0,1-17.49,6.47,162,162,0,0,1-17.9,3c-6,.68-12,1-17.94,1.33l2.58-2.54-5.78,66.2Zm-.83.41,3.45-66.38,3.86-66.34a2.69,2.69,0,0,1,2.5-2.53H721a208,208,0,0,0,34.62-5,64.33,64.33,0,0,0,15.7-6.08c4.73-2.68,8.47-6.53,9.38-11.1,1.08-4.56-.63-9.84-3.24-14.6a74.75,74.75,0,0,0-10-13.59c-7.74-8.51-16.67-16.13-25.84-23.42-18.43-14.51-38.24-27.45-58.4-39.73q-15.15-9.19-30.63-17.84c-10.33-5.73-20.7-11.48-31.12-16.91l-.13-.07-.15-.09-7.21-4.82a85.06,85.06,0,0,1-6.94-5.27l-3.4-2.73-3.16-3.08a52.83,52.83,0,0,1-6-6.47A47.06,47.06,0,0,1,589.14,88l-2.37-3.82-1.84-4.15a42,42,0,0,1-2.87-8.62c-.94-2.9-.85-6-1.29-9a78.08,78.08,0,0,1,.42-9.06c.65-2.92.85-6,1.91-8.77a58,58,0,0,1,3-8.34,62.66,62.66,0,0,1,3.91-7.87A74,74,0,0,1,594.64,21c1.68-2.35,3.25-4.8,5.14-7s3.56-4.54,5.52-6.62l5.84-6.31a3.31,3.31,0,0,1,5.26,4l0,0a83.84,83.84,0,0,0-9.49,20.86c-2,7.25-2.52,14.91-.27,22a42.36,42.36,0,0,0,12.12,18.66,96.74,96.74,0,0,0,18.9,13.53c13.69,7.71,28.55,13.49,43.5,18.84s30.19,10,45.46,14.6,30.53,9.21,45.72,14.1,30.38,9.84,45.27,15.67a399.35,399.35,0,0,1,43.7,19.91c14.08,7.69,27.66,16.58,39.62,27.55a127.42,127.42,0,0,1,29.51,38.67,112.59,112.59,0,0,1,8.15,23.16c1.11,4,1.57,8,2.32,12.07.35,4.07,1,8.33,1,12.25l.21,6.08-.34,6.21a67,67,0,0,1-1.64,12.34l-.6,3.06-1,3-2,5.93a113.82,113.82,0,0,1-5.38,11.25c-8.41,14.4-20.7,26-34.21,35s-28.44,15.71-43.63,21a346.93,346.93,0,0,1-46.55,12.31,438.69,438.69,0,0,1-47.54,6.66,463.42,463.42,0,0,1-47.86,2,.39.39,0,0,1-.39-.41Z"/><path class="cls-2" d="M607.33,68.9C609.59,150.36,881.2,108,881.11,274.6c.06,77-102.5,100.47-165.2,107.65l-.57,8s212.75,0,212.66-110.82C928.08,120,641.07,141,607.33,68.9Z"/><path class="cls-3" d="M765.51,331.51c0,45.88-17.83,83.07-39.81,83.07s-39.81-37.19-39.81-83.07,17.83-83.07,39.81-83.07S765.51,285.63,765.51,331.51Z"/><path class="cls-2" d="M765.91,331.51s0,1.56-.07,4.48-.27,7.19-.49,12.66c-.54,5.43-.79,12.11-2.23,19.67s-3.26,16.15-7.31,25a57.94,57.94,0,0,1-8,13,33.88,33.88,0,0,1-13.83,10.14,23.25,23.25,0,0,1-9.5,1.27,20.31,20.31,0,0,1-4.28-.83c-1.55-.6-3.38-1-4.64-1.87a36.73,36.73,0,0,1-13.19-12.62c-6.56-10.22-10.6-21.86-13.46-33.85a201.09,201.09,0,0,1-5.16-37.08c0-3.22-.16-6.23-.14-9.4s.1-6.38.39-9.51a144.68,144.68,0,0,1,2.68-18.7c2.61-12.27,6.94-24.19,14.09-34.5A37.46,37.46,0,0,1,715,246.76a25.13,25.13,0,0,1,9.62-2.48l.62-.06.31,0h.16a5.57,5.57,0,0,1,.57,0l1,.12,2,.24a8.74,8.74,0,0,1,2.29.5l2.5.79C746.16,251,751.92,261,756,269.62a105.07,105.07,0,0,1,7.21,25.05c1.44,7.57,1.69,14.25,2.22,19.69.22,5.47.48,9.74.45,12.67S765.91,331.51,765.91,331.51Zm-.81,0s-.06-1.54-.16-4.45a121.06,121.06,0,0,0-1-12.54,126.7,126.7,0,0,0-4.23-19A107.2,107.2,0,0,0,750,272.67a66.28,66.28,0,0,0-7.88-11.15c-3.1-3.3-6.82-6.41-10.74-7.78l-1.33-.43a3.89,3.89,0,0,0-1.65-.36l-2-.18-1-.1.32,0h-.1l-.2,0-.39,0a17.06,17.06,0,0,0-6.37,1.66,32.1,32.1,0,0,0-11.24,9.86c-6.49,8.66-11,19.71-13.91,31.22a141.25,141.25,0,0,0-3.56,17.71c-.53,3-.76,6-1.16,9s-.44,6.24-.67,9.23A135.6,135.6,0,0,0,691.24,368c2.7,11.78,7.46,23.1,14.54,31.86a32,32,0,0,0,12.27,9.88,17.08,17.08,0,0,0,3.2,1c.86.41,2.62.24,3.87.42a17.31,17.31,0,0,0,6.39-1.27c8.48-3.49,14.27-11.88,18.66-19.5a110.3,110.3,0,0,0,9.58-22.91,126.47,126.47,0,0,0,4.21-19A116.66,116.66,0,0,0,765,336C765.05,333.05,765.1,331.5,765.1,331.5Z"/><path class="cls-2" d="M725.7,258.51a17.81,17.81,0,0,0-7.56,1.73c15.68,7.21,27.41,36.37,27.41,71.27s-11.73,64.05-27.41,71.27a18,18,0,0,0,7.56,1.73c19.32,0,35-32.68,35-73S745,258.51,725.7,258.51Z"/><path class="cls-2" d="M733.47,331.51c0,38.55-9.86,69.8-22,69.8s-22-31.25-22-69.8,9.85-69.81,22-69.81S733.47,293,733.47,331.51Z"/><path class="cls-3" d="M716.16,278.22l.45-5.36H536.76V396.19h172.1c9.9,0,17.93-27.61,17.93-61.66C726.79,309.42,722.42,287.85,716.16,278.22Z"/><path class="cls-2" d="M715.76,278.19l.13-5.38.72.77-22.48,1c-7.5.32-15,.46-22.48.7l-22.49.59-22.47.35c-15,.12-30,.27-45,.09s-30-.76-45-1.16l2.33-2.33c-.29,10.28-.72,20.56-.87,30.83s-.28,20.56-.21,30.84.13,20.55.34,30.83l.79,30.83-2.38-2.38c24.78-.65,49.56-1,74.33-1.3s49.55-.55,74.32-.57l18.59,0,4.64,0h-.07l.29,0,.55,0c0-.09-.21,0,0-.05a3.13,3.13,0,0,0,.93-.54,17.76,17.76,0,0,0,4.22-6,82.61,82.61,0,0,0,5.39-16.72,159.39,159.39,0,0,0,2.86-17.93,239.12,239.12,0,0,0,.75-36.61,164.36,164.36,0,0,0-2.19-18.22c-1.15-6-2.63-12-5.5-17.41A.55.55,0,0,1,715.76,278.19Zm.82-.06c3.66,5.11,5.75,11.12,7.55,17.06A124.51,124.51,0,0,1,728,313.61a186.83,186.83,0,0,1,1.55,37.61,163.5,163.5,0,0,1-2.12,18.88A77.66,77.66,0,0,1,722,388.84c-1.49,3.06-3.1,6.23-6.45,9.05a11.31,11.31,0,0,1-3,1.82,10.36,10.36,0,0,1-2.26.62l-.6.06-.29,0-.66,0H685.41c-24.77,0-49.55-.4-74.32-.57s-49.55-.65-74.33-1.31h-.12a2.3,2.3,0,0,1-2.25-2.37l.79-30.83c.21-10.28.21-20.56.34-30.83s0-20.56-.22-30.84-.58-20.55-.86-30.83a2.27,2.27,0,0,1,2.2-2.32h.12c15-.41,30-1,45-1.16s30,0,45,.09l22.47.35,22.49.59c7.49.24,15,.38,22.48.7l22.48,1h.07a.68.68,0,0,1,.64.71v.06Z"/><path class="cls-2" d="M707.52,385.94H541.64l3-81.41,171.09,4.67C729.52,356.36,707.52,385.94,707.52,385.94Z"/><path class="cls-3" d="M230.67,401.31S3.42,401.31,3.51,282.94C3.42,83.08,412.56,142.43,328.61,3.36c38.16,39.86,42.51,78.83-9.75,110.72,0,0-284.35,144.43-97.84,154.69Z"/><path class="cls-2" d="M230.67,401.71a463.65,463.65,0,0,1-47.86-2,438.5,438.5,0,0,1-47.53-6.66,345.74,345.74,0,0,1-46.55-12.31c-15.19-5.33-30-12.07-43.64-21s-25.8-20.58-34.21-35A114.74,114.74,0,0,1,5.5,313.5l-2-5.94-1-3L2,301.53A67,67,0,0,1,.34,289.19L0,283l.21-6.08c0-3.92.69-8.18,1-12.25.76-4,1.21-8.11,2.32-12.07a112.59,112.59,0,0,1,8.15-23.16,127.42,127.42,0,0,1,29.51-38.67c12-11,25.55-19.86,39.62-27.55a400.21,400.21,0,0,1,43.7-19.91c14.89-5.83,30.05-10.88,45.27-15.67s30.47-9.49,45.72-14.1S246,104.24,261,98.92s29.8-11.13,43.49-18.84a96.51,96.51,0,0,0,18.91-13.53c5.6-5.22,10-11.57,12.11-18.65,2.25-7.06,1.75-14.72-.26-22a83.84,83.84,0,0,0-9.49-20.86l0,0a3.31,3.31,0,0,1,5.26-4l5.83,6.31c2,2.08,3.68,4.42,5.53,6.62s3.46,4.62,5.14,7a75.85,75.85,0,0,1,4.59,7.42A62.66,62.66,0,0,1,356,36.25a58,58,0,0,1,3,8.34c1,2.78,1.26,5.85,1.91,8.77a80.36,80.36,0,0,1,.42,9.06c-.44,3-.35,6.11-1.3,9a42,42,0,0,1-2.86,8.61l-1.85,4.15L353,88a46.46,46.46,0,0,1-5.27,7.21,52.06,52.06,0,0,1-6,6.47l-3.16,3.08-3.4,2.73a83.37,83.37,0,0,1-6.94,5.27L321,117.6l-.14.09-.14.07c-10.42,5.43-20.79,11.18-31.11,16.91S269.07,146.38,259,152.51c-20.16,12.28-40,25.22-58.41,39.73-9.17,7.29-18.1,14.91-25.84,23.42a74.75,74.75,0,0,0-10,13.59c-2.61,4.76-4.31,10-3.24,14.6.92,4.57,4.66,8.42,9.39,11.1a64.33,64.33,0,0,0,15.7,6.08,208,208,0,0,0,34.62,5h.09a2.71,2.71,0,0,1,2.5,2.53l3.86,66.34,3.45,66.38a.4.4,0,0,1-.38.42Zm-.44-.83-6.16-65.71L218.29,269l2.58,2.54c-6-.29-12-.65-17.94-1.33a163,163,0,0,1-17.91-3,70.82,70.82,0,0,1-17.48-6.47c-5.5-3-11.19-8.08-12.83-15.3a21.78,21.78,0,0,1,.12-10.38,36.8,36.8,0,0,1,3.48-9.15,81.53,81.53,0,0,1,10.77-15.19A202.33,202.33,0,0,1,195.58,186c18.81-14.93,38.78-28.05,59.08-40.53s41-24.22,62.33-35l-.28.16,6.83-4.48a72.73,72.73,0,0,0,6.53-4.86l3.19-2.5,2.9-2.78a45.48,45.48,0,0,0,5.5-5.79,40.28,40.28,0,0,0,4.72-6.32l2.12-3.32L350.09,77a34.66,34.66,0,0,0,2.52-7.3c.86-2.45.73-5.08,1.18-7.61a71.89,71.89,0,0,0-.29-7.76c-.57-2.54-.66-5.18-1.6-7.68a52.11,52.11,0,0,0-2.65-7.49,56.8,56.8,0,0,0-3.51-7.24A66.79,66.79,0,0,0,341.53,25a80.65,80.65,0,0,0-4.71-6.69c-1.71-2.13-3.28-4.38-5.13-6.42l-5.48-6.19,5.24-4a89.8,89.8,0,0,1,9.73,22.75c2.06,8.07,2.5,17-.3,25.17a47.67,47.67,0,0,1-14,20.72A101,101,0,0,1,306.72,84.1c-14.28,7.65-29.41,13.1-44.57,18.15s-30.53,9.41-45.81,13.94-30.6,8.92-45.79,13.72c-15.13,5-30.18,10.15-44.91,16.12a322.23,322.23,0,0,0-42.87,20.58c-13.65,8-26.69,17.06-38,28A121.83,121.83,0,0,0,17.65,232.2a106.32,106.32,0,0,0-7.49,21.93c-1,3.73-1.41,7.61-2.1,11.41-.28,3.87-.89,7.51-.88,11.58C6.65,292.63,9.27,308,16.9,321.33s18.92,24.3,31.75,33.09S76,369.77,90.7,375.33a339.82,339.82,0,0,0,45.51,13.31c15.47,3.47,31.16,6,46.92,8.13S214.48,400.18,230.23,400.88Z"/><path class="cls-2" d="M334.8,68.9C332.54,150.36,60.94,108,61,274.6c-.06,77,102.51,100.47,165.2,107.65l.58,8s-212.75,0-212.67-110.82C14.05,120,301.07,141,334.8,68.9Z"/><path class="cls-3" d="M176.64,331.51c0,45.88,17.81,83.07,39.79,83.07s39.81-37.19,39.81-83.07-17.83-83.07-39.81-83.07S176.64,285.63,176.64,331.51Z"/><path class="cls-2" d="M177,331.5s.05,1.55.14,4.47a119.35,119.35,0,0,0,1,12.54,126.47,126.47,0,0,0,4.21,19A110.23,110.23,0,0,0,192,390.44c4.4,7.62,10.18,16,18.66,19.5a17.36,17.36,0,0,0,6.4,1.27c1.25-.18,3,0,3.87-.42a17.31,17.31,0,0,0,3.2-1,32.16,32.16,0,0,0,12.27-9.88c7.07-8.76,11.84-20.08,14.54-31.86a135.63,135.63,0,0,0,3.15-36.52c-.22-3-.37-6.2-.66-9.23s-.63-6-1.16-9a138.11,138.11,0,0,0-3.57-17.71c-2.95-11.51-7.41-22.56-13.89-31.22a31.94,31.94,0,0,0-11.25-9.86,16.91,16.91,0,0,0-6.36-1.66l-.4,0-.2,0h-.1l.33,0-1,.1-2,.18a3.85,3.85,0,0,0-1.65.36l-1.34.43c-3.91,1.37-7.63,4.48-10.73,7.78a66.28,66.28,0,0,0-7.88,11.15,107.2,107.2,0,0,0-9.68,22.83,129.23,129.23,0,0,0-4.23,19,121.06,121.06,0,0,0-1,12.54C177.09,330,177,331.5,177,331.5Zm-.8,0s0-1.56,0-4.48.23-7.2.44-12.67c.54-5.44.78-12.12,2.22-19.68a105.55,105.55,0,0,1,7.2-25.06C190.22,261,196,251,208.07,245.87l2.5-.79a8.83,8.83,0,0,1,2.29-.5l2-.24,1-.12c-.35,0,.62-.05.58,0h.15l.31,0,.63.06a25,25,0,0,1,9.61,2.48,37.5,37.5,0,0,1,14.23,12.65c7.14,10.3,11.47,22.22,14.09,34.49a148.22,148.22,0,0,1,2.67,18.7c.29,3.13.25,6.35.38,9.51s-.09,6.18-.13,9.4a201.09,201.09,0,0,1-5.16,37.08c-2.87,12-6.89,23.63-13.45,33.85a36.84,36.84,0,0,1-13.2,12.62c-1.25.88-3.08,1.27-4.63,1.87a20.55,20.55,0,0,1-4.28.83,23.2,23.2,0,0,1-9.5-1.27,33.75,33.75,0,0,1-13.83-10.14,57.94,57.94,0,0,1-8-13c-4.05-8.84-5.93-17.45-7.3-25s-1.7-14.24-2.24-19.67c-.23-5.48-.51-9.75-.49-12.66S176.24,331.51,176.24,331.51Z"/><path class="cls-2" d="M216.43,258.51a17.81,17.81,0,0,1,7.56,1.73c-15.68,7.21-27.4,36.37-27.4,71.27s11.72,64.05,27.4,71.27a18,18,0,0,1-7.56,1.73c-19.31,0-35-32.68-35-73S197.12,258.51,216.43,258.51Z"/><path class="cls-2" d="M208.66,331.51c0,38.55,9.86,69.8,22,69.8s22-31.25,22-69.8-9.86-69.81-22-69.81S208.66,293,208.66,331.51Z"/><path class="cls-3" d="M226,278.22l-.43-5.36H405.37V396.19H233.27c-9.9,0-17.92-27.61-17.92-61.66C215.35,309.42,219.71,287.85,226,278.22Z"/><path class="cls-2" d="M225.55,278.13l-.73-5.21a.68.68,0,0,1,.57-.76h.14l22.48-1c7.5-.32,15-.46,22.48-.7l22.48-.59,22.48-.35c15-.12,30-.27,45-.09s30,.75,45,1.16h.12a2.27,2.27,0,0,1,2.2,2.32c-.28,10.28-.72,20.56-.87,30.83s-.28,20.56-.21,30.84.13,20.55.35,30.83l.79,30.83a2.31,2.31,0,0,1-2.26,2.37h-.12c-24.78.66-49.55,1-74.33,1.31s-49.55.54-74.33.57H233.49l-.66,0-.29,0-.59-.06a10.46,10.46,0,0,1-2.27-.62,11.79,11.79,0,0,1-3.06-1.81c-3.34-2.83-4.94-6-6.43-9.06a77.69,77.69,0,0,1-5.46-18.74,163.23,163.23,0,0,1-2.11-18.88,186.83,186.83,0,0,1,1.55-37.61A124.51,124.51,0,0,1,218,295.19C219.8,289.25,221.89,283.25,225.55,278.13Zm.75.31c-2.87,5.41-4.35,11.42-5.49,17.42a163.9,163.9,0,0,0-2.19,18.21,236.58,236.58,0,0,0,.75,36.61,157.14,157.14,0,0,0,2.86,17.93,81.77,81.77,0,0,0,5.38,16.72,17.63,17.63,0,0,0,4.23,6,3,3,0,0,0,.92.54c.17.09,0,0,0,.05l.56,0,.29,0h-.08l4.64,0,18.58,0c24.78,0,49.56.39,74.33.57s49.55.65,74.33,1.3L403,396.19l.79-30.83c.22-10.28.22-20.56.34-30.83s0-20.56-.21-30.84-.59-20.55-.86-30.83l2.32,2.33c-15,.4-30,1-45,1.16s-30,0-45-.09L293,275.91l-22.48-.59c-7.49-.24-15-.38-22.48-.7l-22.48-1,.72-.77.11,5.38A.42.42,0,0,1,226.3,278.44Z"/><path class="cls-2" d="M234.62,385.94H400.5l-3-81.41-171.1,4.67C212.61,356.36,234.62,385.94,234.62,385.94Z"/><path class="cls-3" d="M270.05,490.48h-8.77a16,16,0,0,0,0,32h8.77Z"/><path class="cls-2" d="M269.52,491a50.25,50.25,0,0,1-7.93,2c-.77.31-2.85.61-3.67,1.06a20.53,20.53,0,0,0-2.74,1.51c-1,.47-1.67,1.43-2.58,2-.64.87-1.68,1.47-2.24,2.45l-1.13,1.34-.9,1.54a13.74,13.74,0,0,0-1.34,3.52c0,1-.29,2.9.13,3.93l.52,1.79,1,1.69a11.35,11.35,0,0,0,2.63,2.81,12.83,12.83,0,0,0,3.38,1.63,13.1,13.1,0,0,0,3.5.66c1.17.12,2.23-.08,3.45,0l8.46-.58-4.11,4.12a87.37,87.37,0,0,1,.52-16A85.22,85.22,0,0,1,269.52,491Zm.93-.56a84.62,84.62,0,0,1,3.2,16,87.37,87.37,0,0,1,.52,16l0,.56a3.83,3.83,0,0,1-4.08,3.56l-8.46-.59a20.39,20.39,0,0,1-4.93-1.1,15.64,15.64,0,0,1-4.31-2.5,22.56,22.56,0,0,1-3.43-3.33,27.53,27.53,0,0,1-2.47-3.91l-1-2-.74-2.25a35.09,35.09,0,0,1-1.1-4.41c0-1.54-.41-3.21-.1-4.83l.36-2.5.88-2.38a15.4,15.4,0,0,1,2.86-4.26,17,17,0,0,1,4.23-2.93,14.81,14.81,0,0,1,5.08-1.64c1.88-.35,2.68,0,4.7,0a47.7,47.7,0,0,1,8.46,2.14h0A.61.61,0,0,1,270.45,490.48Z"/><path class="cls-3" d="M677.31,490.48h8.77a16,16,0,0,1,0,32h-8.77Z"/><path class="cls-2" d="M677.31,490.08a47.59,47.59,0,0,1,8.47-2.14c2,0,2.82-.35,4.69,0a14.93,14.93,0,0,1,5.09,1.64,16.8,16.8,0,0,1,4.22,2.93,15.18,15.18,0,0,1,2.86,4.26l.88,2.38.36,2.5c.31,1.62-.1,3.29-.1,4.83a33.44,33.44,0,0,1-1.1,4.41l-.74,2.25-1,2a27.6,27.6,0,0,1-2.48,3.91,22.49,22.49,0,0,1-3.42,3.33,15.84,15.84,0,0,1-4.32,2.5,20.32,20.32,0,0,1-4.92,1.1l-8.47.59a3.83,3.83,0,0,1-4.08-3.56l0-.56a87.37,87.37,0,0,1,.52-16,84.62,84.62,0,0,1,3.2-16,.59.59,0,0,1,.36-.38Zm.54,1a86.08,86.08,0,0,1,3.06,15.44,87.37,87.37,0,0,1,.52,16l-4.12-4.12,8.47.58c1.21,0,2.27.17,3.44,0a13,13,0,0,0,3.5-.66,12.74,12.74,0,0,0,3.39-1.63,11.13,11.13,0,0,0,2.62-2.81l1-1.69.51-1.79c.43-1,.15-2.92.14-3.93A13.72,13.72,0,0,0,699,503l-.9-1.54L697,500.08c-.56-1-1.6-1.58-2.24-2.45a19.83,19.83,0,0,0-5.32-3.55c-.83-.45-2.9-.75-3.67-1.06A50,50,0,0,1,677.85,491Z"/><path class="cls-3" d="M271.74,497.2c0-122.31,90.42-334,201.94-334s202,211.65,202,334C675.63,497.2,451.85,388.24,271.74,497.2Z"/><path class="cls-2" d="M271.34,497.19c-.49-17.44,1-35,3.34-52.35a449.43,449.43,0,0,1,10.42-51.5,506.42,506.42,0,0,1,15.81-50.16q9.22-24.65,20.8-48.36A398.83,398.83,0,0,1,347.87,249a304.42,304.42,0,0,1,32.92-41.38C393.11,195,406.93,183.56,422.56,175s33.15-13.7,51.23-13.6c8.57.48,17.67,1.5,26.1,4.26,8.57,2.32,16.56,6.25,24.32,10.41,15.32,8.77,28.7,20.42,40.91,33a309.42,309.42,0,0,1,32.72,41.08,423.75,423.75,0,0,1,26.76,45.23,551.89,551.89,0,0,1,38.53,97.75,445.54,445.54,0,0,1,11.64,51.41,342.07,342.07,0,0,1,4.87,52.69,4,4,0,0,1-4,4,3.9,3.9,0,0,1-1.7-.36l-.12-.05c-7.69-3.59-15.81-6.86-23.87-10s-16.29-6-24.49-8.78-16.5-5.38-24.84-7.75-16.72-4.67-25.16-6.66-16.91-3.9-25.43-5.54-17.07-3.05-25.65-4.36-17.19-2.31-25.81-3.15c-4.31-.53-8.64-.76-13-1.11s-8.65-.65-13-.77c-8.67-.47-17.33-.47-26-.46-8.65.29-17.34.39-26,1.22-8.66.53-17.24,1.71-25.87,2.71-8.54,1.43-17.17,2.54-25.61,4.58-8.53,1.66-16.89,4-25.26,6.32-4.2,1.1-8.26,2.67-12.41,4s-8.29,2.64-12.3,4.31l-12.16,4.74-11.88,5.42-5.95,2.73-5.76,3.08L272,497.54a.42.42,0,0,1-.56-.17A.41.41,0,0,1,271.34,497.19Zm.85-.73,10.64-6.3,5.65-3.35,5.85-3,11.72-6,12.05-5.31c4-1.86,8.11-3.36,12.23-4.88s8.21-3.17,12.42-4.4c8.4-2.61,16.8-5.22,25.38-7.18,8.5-2.31,17.2-3.71,25.83-5.42,8.71-1.3,17.42-2.7,26.2-3.37,8.75-1,17.56-1.28,26.36-1.73,8.8-.17,17.61-.33,26.41,0,4.4,0,8.8.26,13.19.54s8.8.42,13.18.88l13.15,1.22,13.1,1.65c8.71,1.29,17.41,2.64,26.05,4.33s17.26,3.44,25.81,5.51,17.08,4.23,25.54,6.65,16.87,5,25.23,7.77,16.63,5.77,24.82,9,16.27,6.61,24.39,10.48l-5.78,3.62c0-34.42-6.3-68.8-14.93-102.33a548,548,0,0,0-36-97.58c-15.16-31.19-33.59-61.17-57.44-86.47-11.87-12.63-25.3-23.94-40.41-32.34-7.64-4-15.47-7.72-23.81-9.87-8.22-2.63-16.65-3.28-25.47-3.53-16.92.43-33.72,5.94-48.46,14.46s-27.79,20.15-39.55,32.67a299,299,0,0,0-31.79,40.73,454.93,454.93,0,0,0-26.06,44.88c-7.81,15.47-14.82,31.36-21.09,47.54s-12,32.58-16.8,49.27a520.82,520.82,0,0,0-11.91,50.73A358.49,358.49,0,0,0,272.19,496.46Z"/><path class="cls-4" d="M473.68,205.29c105.48,0,191.23,180.56,193.27,288,5.62,2.42,8.68,3.91,8.68,3.91,0-122.31-90.42-334-201.95-334s-201.94,211.65-201.94,334q4.32-2.62,8.68-5.07C283.07,384.56,368.58,205.29,473.68,205.29Z"/><path class="cls-2" d="M598.39,278.71a163.54,163.54,0,0,1,4.77,39.22c0,58.16-30.23,108.36-73.93,131.79,76.16,12.13,131.2,38.93,131.2,38.93C660.43,428.11,636.46,343.91,598.39,278.71Z"/><path class="cls-2" d="M344.21,317.93A163.18,163.18,0,0,1,349,278.7c-38.08,65.2-62.05,149.41-62.05,210,40.66-24.59,83.72-37.16,125.59-42.13C371.86,421.92,344.21,373.56,344.21,317.93Z"/><path class="cls-3" d="M493.29,158.37c0-3.33-8.78-6-19.61-6s-19.61,2.71-19.61,6L420.8,557.43l52.88,49.16,52.89-49.16Z"/><path class="cls-2" d="M492.9,158.55v-.11c-.05-1-.53-1.36-1.23-2a10.06,10.06,0,0,0-2.25-1.25,27.43,27.43,0,0,0-5.1-1.48,56.41,56.41,0,0,0-10.63-.94,53,53,0,0,0-10.61,1.06,27.45,27.45,0,0,0-5,1.56c-1.5.64-3.25,1.75-3.26,2.94v.06c-1.2,16.64-2.06,33.32-3.1,50l-3,50q-1.61,25-3.58,49.93l-4.39,49.87c-1.51,16.61-3.33,33.2-5,49.81L430.7,457.8l-4.54,49.85-3.9,49.9-.46-1.19,53.62,48.36h-3.48c17.3-16.74,34.79-33.28,52.23-49.87l-1.12,2.87-9-99.71L506,358.23l-3.42-49.94-2.93-50-3-50C495.5,191.72,494.22,175.13,492.9,158.55Zm.79-.21c1.45,16.62,2.94,33.24,4.62,49.84L503.62,258,509,307.75l4.9,49.82,8.54,99.74,7.64,99.82v.07A3.45,3.45,0,0,1,529,560c-17.83,16.18-35.59,32.42-53.55,48.45l-.07.07a2.52,2.52,0,0,1-3.41-.07l-52.14-50,0,0a1.44,1.44,0,0,1-.44-1.17l4.41-49.86,3.79-49.92,3.24-49.95c1.12-16.66,2.08-33.32,3.34-50l3.93-49.9q2.18-24.93,4.74-49.83l5.35-49.78c1.74-16.6,3.65-33.19,5.22-49.8v.06a3.65,3.65,0,0,1,1.67-2.74,11.43,11.43,0,0,1,2.51-1.37,27.92,27.92,0,0,1,5.3-1.49,60.87,60.87,0,0,1,10.84-.92,56.89,56.89,0,0,1,10.81,1,27.69,27.69,0,0,1,5.24,1.57,10.48,10.48,0,0,1,2.43,1.38,5.34,5.34,0,0,1,1,1,3.09,3.09,0,0,1,.49,1.43Z"/><g class="cls-5"><path class="cls-6" d="M493.29,158.37c0-3.33-8.78-6-19.61-6,5.49,0,9.94,2.71,9.94,6l16.87,399.06-26.81,49.16,52.89-49.16Z"/><path class="cls-6" d="M463.74,158.37c0-3.33,4.45-6,9.94-6-10.83,0-19.61,2.71-19.61,6L420.8,557.43l52.88,49.16-26.8-49.16Z"/></g><path class="cls-3" d="M677,537.5s0-63.78-203.36-63.78S270.33,537.5,270.33,537.5V490.11s0-63.78,203.35-63.78S677,490.11,677,490.11Z"/><path class="cls-2" d="M676.64,537.52A22.47,22.47,0,0,0,674.7,531l-1.53-3.08L671.24,525a49.47,49.47,0,0,0-9.35-10l-2.6-2.25-2.87-1.94L650.68,507c-4.14-2-8.12-4.38-12.34-6.23-4.31-1.7-8.53-3.59-12.88-5.14l-13.28-4.09c-4.43-1.32-9-2.13-13.53-3.22A137.4,137.4,0,0,0,585,485.6c-9.17-1.5-18.29-3.25-27.58-4-9.26-1-18.5-2.13-27.82-2.47s-18.59-1.34-27.93-1.26l-28-.69-28,.39c-9.41-.18-18.62.64-27.94,1s-18.58,1.23-27.87,2.15c-9.32.67-18.49,2.29-27.71,3.72a117.68,117.68,0,0,0-13.69,2.77c-4.51,1.14-9.11,2-13.56,3.37l-13.29,4.25c-4.36,1.6-8.58,3.54-12.89,5.29s-8.16,4.4-12.24,6.58l-5.63,4-2.8,2L285.52,515a49.1,49.1,0,0,0-9,10.27l-1.79,2.89-1.36,3.07a21.5,21.5,0,0,0-1.59,6.23h-3l-.5-34-.13-8.51-.06-4.25a16.82,16.82,0,0,1,.65-4.76,23.39,23.39,0,0,1,1.49-4.34,23.92,23.92,0,0,1,2-4.06l2.36-3.83,2.8-3.47c7.72-9.1,17.75-15.43,28-20.87,5.31-2.24,10.51-4.9,15.95-6.79s10.86-3.89,16.41-5.38L354.49,433c5.61-1.15,11.26-2.09,16.88-3.14,2.83-.48,5.63-1.08,8.47-1.47l8.5-1.05,17-2.08c11.37-.86,22.76-1.72,34.14-2.39l34.27-.67,34,.76c11.39.62,22.82,1.44,34.23,2.26l17,2.13,8.5,1.08c2.83.41,5.63,1,8.45,1.52,5.62,1.08,11.26,2,16.86,3.22l16.68,4.29c5.53,1.5,10.92,3.61,16.38,5.39s10.61,4.58,15.9,6.85c10.15,5.53,20.16,11.8,27.8,20.87l2.78,3.45,2.32,3.8a23.09,23.09,0,0,1,2,4,22.72,22.72,0,0,1,1.46,4.28,16.5,16.5,0,0,1,.59,4.64l-.12,4.25-.23,8.51-1,34Zm0,0-.94-34-.24-8.51-.11-4.25a13.33,13.33,0,0,0-.7-3.73,19,19,0,0,0-1.44-3.7,20.13,20.13,0,0,0-1.91-3.53l-2.23-3.37-2.69-3.07c-7.36-8.12-17.13-13.75-27-18.67-5.21-2-10.23-4.37-15.55-6.09s-10.6-3.53-16-4.87l-16.37-3.8c-5.52-1-11.09-1.84-16.62-2.77-2.77-.43-5.53-1-8.32-1.3l-8.4-.88-16.78-1.79c-11.23-.75-22.42-1.5-33.67-2.06l-34-.59-33.76.69c-11.26.51-22.52,1.22-33.76,1.92l-16.78,1.83-8.39.92c-2.79.35-5.54.9-8.32,1.34-5.52,1-11.09,1.81-16.59,2.86l-16.36,3.84c-5.44,1.33-10.67,3.26-16,4.86s-10.31,4.14-15.49,6.16c-9.81,5-19.56,10.59-26.83,18.66l-2.66,3.06-2.2,3.34a20,20,0,0,0-1.89,3.49,19,19,0,0,0-1.4,3.64,12.45,12.45,0,0,0-.65,3.61l-.06,4.25-.13,8.51-.49,34v.15a1.49,1.49,0,0,1-3,0v-.1a23.88,23.88,0,0,1,1.88-7.31l1.52-3.33,1.95-3.07a51.65,51.65,0,0,1,9.54-10.72l2.65-2.4,2.91-2.07,5.84-4.08c4.18-2.21,8.25-4.66,12.52-6.68,4.34-1.84,8.61-3.88,13-5.57l13.4-4.51c4.48-1.45,9.1-2.38,13.65-3.61s9.12-2.36,13.75-3.16c9.24-1.77,18.47-3.77,27.82-4.79,9.32-1.28,18.65-2.62,28.06-3.21s18.82-1.82,28.16-2l28.16-.73,28.22.43c9.4.05,18.78,1.12,28.17,1.68s18.76,1.72,28.11,2.89c9.38.92,18.66,2.8,27.94,4.5A140.6,140.6,0,0,1,599.91,483c4.56,1.27,9.18,2.25,13.68,3.76L627,491.43c4.4,1.74,8.69,3.83,13,5.72s8.28,4.69,12.41,7l5.73,4.28,2.83,2.16,2.58,2.49c6.81,6.45,13,14.66,13.84,24.37Z"/><path class="cls-3" d="M312.34,479.92a14.18,14.18,0,1,1-14.18-14.17A14.19,14.19,0,0,1,312.34,479.92Z"/><path class="cls-2" d="M312.34,479.92s0,.35-.09,1a11.81,11.81,0,0,1-.42,2.78,17.29,17.29,0,0,1-1.56,4.16c-.43.74-1,1.47-1.57,2.29s-1.41,1.46-2.19,2.26a17,17,0,0,1-6.55,3.26,12.36,12.36,0,0,1-2.21.41l-1.88.08a15.61,15.61,0,0,1-4.58-.72,17,17,0,0,1-8-5.66,17.52,17.52,0,0,1-3.32-9.86l.05-.66,0-.26.06-.51.12-1a10.91,10.91,0,0,1,.6-2.55,15.83,15.83,0,0,1,2.45-4.84,16.9,16.9,0,0,1,8-5.67,16.07,16.07,0,0,1,8.67-.24,15.41,15.41,0,0,1,3.61,1.36,21,21,0,0,1,3,1.91c.79.8,1.53,1.54,2.19,2.27s1.14,1.55,1.58,2.3a17,17,0,0,1,1.55,4.15,11.88,11.88,0,0,1,.42,2.79C312.3,479.58,312.34,479.92,312.34,479.92Zm0,0s0-.34-.12-1a9.72,9.72,0,0,0-.52-2.75c-.22-.57-.4-1.22-.7-1.87l-1.27-2c-.52-.65-1.18-1.25-1.8-1.91a21.83,21.83,0,0,0-2.38-1.58,12.39,12.39,0,0,0-12,.72,14.43,14.43,0,0,0-4.17,4.54,16,16,0,0,0-1,2.64c-.31.29-.39,2.69-.49,3.16a15.46,15.46,0,0,0,1.42,5.82,14.46,14.46,0,0,0,4.18,4.54c.93.41,1.41,1.06,2.77,1.33l1.82.46a8.75,8.75,0,0,0,1.4.12,12,12,0,0,0,6-1.2,20.39,20.39,0,0,0,2.37-1.59c.62-.66,1.28-1.26,1.8-1.9l1.27-2c.3-.65.48-1.29.7-1.86a9.83,9.83,0,0,0,.52-2.76C312.3,480.27,312.34,479.92,312.34,479.92Z"/><path class="cls-3" d="M292.84,485.24a7.52,7.52,0,1,1,10.64,0A7.5,7.5,0,0,1,292.84,485.24Z"/><path class="cls-2" d="M292.84,485.24a8.81,8.81,0,0,1-1.26-1.59,9.76,9.76,0,0,1-1.08-2.13,12.75,12.75,0,0,1-.57-3.23,10.12,10.12,0,0,1,1-4.12,4.74,4.74,0,0,1,.72-1.2l.59-.83a8,8,0,0,1,2.19-1.86,10,10,0,0,1,5.94-1.34,10.58,10.58,0,0,1,5.93,2.84,10.7,10.7,0,0,1,1.8,2.57,9.37,9.37,0,0,1,1,3.35,9.89,9.89,0,0,1-1.32,5.95,9.17,9.17,0,0,1-3.88,3.5,12.33,12.33,0,0,1-2.14.75,10.71,10.71,0,0,1-2,.25,12.32,12.32,0,0,1-3.24-.57,9.76,9.76,0,0,1-2.13-1.08A8.81,8.81,0,0,1,292.84,485.24Zm0,0,.41.33a4.9,4.9,0,0,0,1.25.81,5.54,5.54,0,0,0,5,.07,5.45,5.45,0,0,0,2.24-2,5.15,5.15,0,0,0,.82-2.81,6.83,6.83,0,0,0-.6-2.44c-.24-.32-.39-.72-.5-.74.27.18-.88-1.11-.76-1a6.28,6.28,0,0,0-4.2-1.87c-.4.1-.62-.25-1.34.13l-.93.42c0-.13-.36.19-.53.26a5.29,5.29,0,0,0-2.05,2.27,5.94,5.94,0,0,0-.52,2.78,6.06,6.06,0,0,0,.6,2.18,5.48,5.48,0,0,0,.82,1.25Z"/><path class="cls-3" d="M372.76,459.1a14.18,14.18,0,1,1-14.17-14.16A14.18,14.18,0,0,1,372.76,459.1Z"/><path class="cls-2" d="M372.76,459.1s0,.35-.08,1a12.37,12.37,0,0,1-.42,2.78A17.13,17.13,0,0,1,370.7,467c-.43.75-1,1.48-1.57,2.3s-1.41,1.46-2.19,2.26a17.15,17.15,0,0,1-6.55,3.26,12.54,12.54,0,0,1-2.21.41l-1.88.08a15.72,15.72,0,0,1-4.59-.72,17,17,0,0,1-8-5.67,17.39,17.39,0,0,1-3.32-9.85l0-.66,0-.26.06-.52.12-1a10.25,10.25,0,0,1,.61-2.54,15.65,15.65,0,0,1,2.44-4.85,16.9,16.9,0,0,1,8-5.68,16,16,0,0,1,8.66-.24,16.43,16.43,0,0,1,3.62,1.36,20.7,20.7,0,0,1,3,1.92c.79.79,1.53,1.54,2.19,2.26s1.14,1.55,1.57,2.3a17.67,17.67,0,0,1,1.56,4.15,11.88,11.88,0,0,1,.42,2.79C372.73,458.76,372.76,459.1,372.76,459.1Zm0,0s0-.34-.12-1a9.78,9.78,0,0,0-.52-2.75c-.21-.57-.39-1.21-.7-1.87l-1.26-2c-.53-.65-1.18-1.24-1.81-1.91A20.76,20.76,0,0,0,366,448a12.45,12.45,0,0,0-12,.73,14.17,14.17,0,0,0-4.16,4.54,15,15,0,0,0-1,2.64c-.31.28-.38,2.69-.48,3.16a15.22,15.22,0,0,0,1.42,5.81,14.27,14.27,0,0,0,4.18,4.55c.93.41,1.41,1.06,2.76,1.34l1.83.45a10.11,10.11,0,0,0,1.4.12,12.09,12.09,0,0,0,6-1.2,21.89,21.89,0,0,0,2.38-1.59c.62-.66,1.28-1.26,1.8-1.9l1.26-2c.31-.66.49-1.3.7-1.87a9.78,9.78,0,0,0,.52-2.75C372.72,459.45,372.76,459.1,372.76,459.1Z"/><path class="cls-3" d="M353.27,464.43a7.53,7.53,0,1,1,10.65,0A7.54,7.54,0,0,1,353.27,464.43Z"/><path class="cls-2" d="M353.27,464.43a8.75,8.75,0,0,1-1.26-1.59,10.09,10.09,0,0,1-1.08-2.14,12.78,12.78,0,0,1-.56-3.23,9.94,9.94,0,0,1,1-4.12,4.74,4.74,0,0,1,.72-1.2l.59-.84a8.38,8.38,0,0,1,2.2-1.86,10.15,10.15,0,0,1,5.94-1.32,10.66,10.66,0,0,1,5.92,2.83l.36.41.09.11.16.22.34.44a6.9,6.9,0,0,1,.86,1.4,9.64,9.64,0,0,1,1,3.35,10,10,0,0,1-1.32,5.95,9.35,9.35,0,0,1-3.89,3.51,11.48,11.48,0,0,1-2.13.73,10.17,10.17,0,0,1-2,.26,12.58,12.58,0,0,1-3.23-.57,9.63,9.63,0,0,1-2.14-1.08A8.81,8.81,0,0,1,353.27,464.43Zm0,0,.42.33a4.89,4.89,0,0,0,1.24.81,5.73,5.73,0,0,0,2.19.6,5.94,5.94,0,0,0,2.77-.53,5.47,5.47,0,0,0,2.25-2,5.22,5.22,0,0,0,.82-2.81,7,7,0,0,0-.6-2.44c-.24-.32-.39-.73-.5-.75.27.19-.89-1.11-.75-1a6.32,6.32,0,0,0-4.22-1.89c-.41.1-.62-.23-1.33.13l-.94.42c0-.14-.35.18-.53.26a5.33,5.33,0,0,0-2,2.27,6,6,0,0,0-.53,2.78,6.06,6.06,0,0,0,.6,2.18,5.16,5.16,0,0,0,.82,1.25C353.16,464.28,353.27,464.43,353.27,464.43Z"/><path class="cls-3" d="M438.14,451.58A14.17,14.17,0,1,1,424,437.4,14.17,14.17,0,0,1,438.14,451.58Z"/><path class="cls-2" d="M438.14,451.58s0,.34-.09,1a11.26,11.26,0,0,1-.41,2.79,17.51,17.51,0,0,1-1.56,4.15c-.43.75-1,1.48-1.56,2.3s-1.41,1.46-2.2,2.26a17,17,0,0,1-6.55,3.26,11.61,11.61,0,0,1-2.21.4l-1.87.08a15.37,15.37,0,0,1-4.6-.71,17,17,0,0,1-7.95-5.67,16.23,16.23,0,0,1-2.4-4.64,9.08,9.08,0,0,1-.64-2.56L406,452.9l-.07-.66,0-.33,0-.17v-.12a4.18,4.18,0,1,1,0-.44c0-2.21,1.17-7,3.28-9.47a16.94,16.94,0,0,1,8-5.67,15.93,15.93,0,0,1,8.66-.23,15.65,15.65,0,0,1,3.61,1.35,19.63,19.63,0,0,1,3,1.92c.79.79,1.54,1.54,2.2,2.26s1.13,1.55,1.57,2.3a18.1,18.1,0,0,1,1.55,4.16,11.13,11.13,0,0,1,.41,2.78C438.11,451.23,438.14,451.58,438.14,451.58Zm0,0-.11-1a9.5,9.5,0,0,0-.53-2.76c-.21-.56-.39-1.21-.7-1.86l-1.26-2c-.52-.64-1.18-1.24-1.8-1.9a20.47,20.47,0,0,0-2.38-1.58,12.39,12.39,0,0,0-12,.72,14.32,14.32,0,0,0-4.17,4.54,14.83,14.83,0,0,0-1.45,6.2c0-.79,0-.21,0-.38v.16l0,.19,0,.37.06.75a6.16,6.16,0,0,0,.28,1.47,16.44,16.44,0,0,0,1,2.85,14.24,14.24,0,0,0,4.17,4.55c.93.41,1.41,1.06,2.76,1.34l1.83.45a10.13,10.13,0,0,0,1.41.12,12,12,0,0,0,6-1.2,20.81,20.81,0,0,0,2.37-1.59c.62-.66,1.28-1.26,1.8-1.9s.88-1.36,1.26-2,.49-1.3.7-1.86a9.62,9.62,0,0,0,.53-2.76C438.1,451.92,438.14,451.58,438.14,451.58Z"/><path class="cls-3" d="M418.65,456.9a7.52,7.52,0,1,1,10.64,0A7.5,7.5,0,0,1,418.65,456.9Z"/><path class="cls-2" d="M418.65,456.9a10.8,10.8,0,0,1-2.33-3.72,12.32,12.32,0,0,1-.57-3.23,9.94,9.94,0,0,1,1-4.12,4.87,4.87,0,0,1,.72-1.2l.59-.84a8.06,8.06,0,0,1,2.2-1.86,10,10,0,0,1,5.93-1.33,9.66,9.66,0,0,1,7.74,5.41,9.52,9.52,0,0,1,1,3.35,9.91,9.91,0,0,1-1.32,5.95,9.36,9.36,0,0,1-3.88,3.5,12.36,12.36,0,0,1-2.14.74,10.87,10.87,0,0,1-2,.26,12.32,12.32,0,0,1-3.23-.57,10.09,10.09,0,0,1-2.14-1.08A9.32,9.32,0,0,1,418.65,456.9Zm0,0,.42.32a4.62,4.62,0,0,0,1.24.82,5.73,5.73,0,0,0,2.19.6,5.92,5.92,0,0,0,2.77-.53,5.41,5.41,0,0,0,2.25-2,5.15,5.15,0,0,0,.82-2.81,6.89,6.89,0,0,0-.61-2.45c-.23-.31-.38-.71-.49-.73.26.18-.88-1.11-.77-1a6.24,6.24,0,0,0-4.19-1.88c-.4.1-.63-.24-1.34.14l-.93.42c0-.13-.36.19-.53.26a5.22,5.22,0,0,0-2.05,2.27,5.94,5.94,0,0,0-.53,2.77,6.06,6.06,0,0,0,.6,2.19,4.87,4.87,0,0,0,.82,1.24Z"/><path class="cls-3" d="M635,485.25a14.18,14.18,0,1,0,14.18-14.18A14.17,14.17,0,0,0,635,485.25Z"/><path class="cls-2" d="M635,485.25l.12,1a9.78,9.78,0,0,0,.52,2.75c.22.57.4,1.22.7,1.87s.82,1.27,1.26,2,1.18,1.24,1.8,1.9a20.53,20.53,0,0,0,2.38,1.59,12,12,0,0,0,6,1.2,10.11,10.11,0,0,0,1.4-.12l1.82-.46c1.36-.27,1.83-.92,2.77-1.33a14.39,14.39,0,0,0,4.18-4.55,15.22,15.22,0,0,0,1.42-5.81c-.1-.48-.18-2.88-.49-3.17a16,16,0,0,0-.95-2.64,14.53,14.53,0,0,0-4.17-4.54,12.19,12.19,0,0,0-6-1.91,11.86,11.86,0,0,0-6,1.2,20.42,20.42,0,0,0-2.38,1.57c-.62.67-1.28,1.27-1.8,1.91l-1.26,2c-.31.66-.49,1.31-.71,1.87a9.83,9.83,0,0,0-.52,2.76C635.07,484.9,635,485.25,635,485.25Zm0,0s0-.35.09-1a11.88,11.88,0,0,1,.42-2.79,17.15,17.15,0,0,1,1.55-4.15c.43-.75,1-1.48,1.57-2.3s1.41-1.47,2.2-2.26a19.63,19.63,0,0,1,3-1.92,15.87,15.87,0,0,1,3.61-1.36,16,16,0,0,1,8.66.24,16.94,16.94,0,0,1,8,5.67,16,16,0,0,1,2.45,4.85,10.78,10.78,0,0,1,.61,2.55l.11,1,.06.52,0,.26,0,.66a17.42,17.42,0,0,1-3.32,9.85,17,17,0,0,1-8,5.66,15.39,15.39,0,0,1-4.59.72l-1.88-.08a11.61,11.61,0,0,1-2.21-.4,17,17,0,0,1-6.55-3.26c-.79-.8-1.54-1.54-2.2-2.26s-1.13-1.55-1.57-2.3a17.59,17.59,0,0,1-1.55-4.15,12,12,0,0,1-.42-2.79C635.07,485.59,635,485.25,635,485.25Z"/><path class="cls-3" d="M654.53,490.57a7.53,7.53,0,1,0-10.64,0A7.51,7.51,0,0,0,654.53,490.57Z"/><path class="cls-2" d="M654.53,490.57l.33-.42a4.8,4.8,0,0,0,.81-1.25,5.75,5.75,0,0,0,.61-2.18,5.82,5.82,0,0,0-.53-2.77,5.26,5.26,0,0,0-2-2.27c-.18-.08-.56-.39-.53-.26l-.94-.42c-.71-.38-.94,0-1.34-.14a6.24,6.24,0,0,0-4.19,1.88c.12-.11-1,1.18-.77,1-.1,0-.26.43-.49.74a6.83,6.83,0,0,0-.61,2.45,5.19,5.19,0,0,0,.83,2.81,5.33,5.33,0,0,0,2.24,2,5.92,5.92,0,0,0,2.77.53,5.81,5.81,0,0,0,2.18-.6,4.8,4.8,0,0,0,1.25-.81Zm0,0a9.32,9.32,0,0,1-1.59,1.26,10.33,10.33,0,0,1-2.14,1.08,12.32,12.32,0,0,1-3.23.57,10.87,10.87,0,0,1-2-.26,12.66,12.66,0,0,1-2.14-.74,9.32,9.32,0,0,1-3.88-3.51,10,10,0,0,1-1.32-5.94,9.52,9.52,0,0,1,1-3.35,10.79,10.79,0,0,1,1.81-2.58,10.5,10.5,0,0,1,5.93-2.83,10,10,0,0,1,5.93,1.33,8.06,8.06,0,0,1,2.2,1.86l.59.84a5.24,5.24,0,0,1,.72,1.19,10,10,0,0,1,1,4.12,12.86,12.86,0,0,1-.56,3.24,9.55,9.55,0,0,1-1.08,2.13A9.32,9.32,0,0,1,654.53,490.57Z"/><path class="cls-3" d="M574.61,459.08a14.17,14.17,0,1,0,14.17-14.17A14.17,14.17,0,0,0,574.61,459.08Z"/><path class="cls-2" d="M574.61,459.08s0,.34.11,1a10.28,10.28,0,0,0,.52,2.76c.22.56.4,1.21.71,1.86l1.26,2c.52.64,1.18,1.24,1.8,1.9a20.39,20.39,0,0,0,2.37,1.59,12.13,12.13,0,0,0,6,1.2,10.11,10.11,0,0,0,1.4-.12l1.83-.45c1.35-.28,1.83-.93,2.76-1.34a14.39,14.39,0,0,0,4.18-4.55,15.17,15.17,0,0,0,1.41-5.81c-.09-.47-.17-2.88-.48-3.16a14.83,14.83,0,0,0-1-2.64,14.29,14.29,0,0,0-4.16-4.54,12.15,12.15,0,0,0-6-1.91,12,12,0,0,0-6,1.19A21.83,21.83,0,0,0,579,449.6c-.62.66-1.27,1.26-1.8,1.9l-1.26,2c-.31.65-.49,1.3-.71,1.86a10.21,10.21,0,0,0-.52,2.76Zm0,0s0-.35.09-1a11.13,11.13,0,0,1,.41-2.78,18.1,18.1,0,0,1,1.55-4.16c.44-.74,1-1.48,1.57-2.3s1.41-1.46,2.2-2.26a21,21,0,0,1,3-1.92,16.44,16.44,0,0,1,12.28-1.12,16.87,16.87,0,0,1,8,5.68,15.72,15.72,0,0,1,2.45,4.84,10.91,10.91,0,0,1,.6,2.55l.12,1,.06.52,0,.26,0,.66a17.38,17.38,0,0,1-3.31,9.85,17.08,17.08,0,0,1-8,5.67,15.35,15.35,0,0,1-4.59.71l-1.88-.08a11.77,11.77,0,0,1-2.21-.4,16.89,16.89,0,0,1-6.54-3.26c-.79-.8-1.54-1.54-2.2-2.26s-1.14-1.55-1.57-2.3a17.51,17.51,0,0,1-1.56-4.15,11.26,11.26,0,0,1-.41-2.79C574.64,459.42,574.61,459.08,574.61,459.08Z"/><path class="cls-3" d="M594.1,464.4a7.53,7.53,0,1,0-10.65,0A7.5,7.5,0,0,0,594.1,464.4Z"/><path class="cls-2" d="M594.1,464.4l.33-.42a4.63,4.63,0,0,0,.81-1.24,5.58,5.58,0,0,0,.08-5,5.23,5.23,0,0,0-2.05-2.27c-.17-.08-.55-.4-.53-.27l-.93-.41c-.71-.38-.93,0-1.34-.14a6.33,6.33,0,0,0-4.2,1.88c.13-.11-1,1.19-.76,1-.1,0-.26.43-.49.74a6.94,6.94,0,0,0-.61,2.45,5.33,5.33,0,0,0,.82,2.81,5.47,5.47,0,0,0,2.25,2,5.82,5.82,0,0,0,2.77.53,5.73,5.73,0,0,0,2.19-.6,4.89,4.89,0,0,0,1.24-.81Zm0,0a9.32,9.32,0,0,1-1.59,1.26,10,10,0,0,1-2.13,1.08,12.4,12.4,0,0,1-3.24.57,9.56,9.56,0,0,1-2-.26,11.11,11.11,0,0,1-2.14-.74,9.29,9.29,0,0,1-3.88-3.5,9.89,9.89,0,0,1-1.32-5.95,9.64,9.64,0,0,1,1-3.35,6.9,6.9,0,0,1,.86-1.4l.34-.44.16-.22.09-.1.36-.41a10.48,10.48,0,0,1,5.92-2.84,10,10,0,0,1,5.94,1.33,8.22,8.22,0,0,1,2.2,1.86l.59.84a4.87,4.87,0,0,1,.72,1.2,10.22,10.22,0,0,1,1,4.11,12.24,12.24,0,0,1-.57,3.23,9.87,9.87,0,0,1-1.07,2.14A9.32,9.32,0,0,1,594.1,464.4Z"/><circle class="cls-3" cx="523.4" cy="451.55" r="14.17"/><path class="cls-2" d="M509.23,451.55l.11,1a9.89,9.89,0,0,0,.52,2.76c.22.56.4,1.21.71,1.86s.81,1.27,1.25,2,1.19,1.24,1.81,1.9a21.74,21.74,0,0,0,2.37,1.59,12,12,0,0,0,6,1.2,9.82,9.82,0,0,0,1.4-.13l1.83-.45c1.34-.27,1.83-.93,2.76-1.33a14.24,14.24,0,0,0,4.17-4.55,15.42,15.42,0,0,0,1.43-5.81c-.11-.48-.18-2.87-.48-3.16a16.39,16.39,0,0,0-1-2.64,14.32,14.32,0,0,0-4.17-4.54,12.12,12.12,0,0,0-6-1.91,12,12,0,0,0-6,1.19,19.65,19.65,0,0,0-2.38,1.58c-.62.66-1.28,1.26-1.8,1.9s-.88,1.36-1.26,2-.49,1.3-.71,1.86a9.83,9.83,0,0,0-.52,2.76Zm0,0s0-.35.08-1a12.36,12.36,0,0,1,.42-2.79,18.1,18.1,0,0,1,1.55-4.16c.43-.75,1-1.48,1.58-2.3s1.39-1.46,2.18-2.26a20.27,20.27,0,0,1,3-1.92A16.43,16.43,0,0,1,530.28,436a16.9,16.9,0,0,1,8,5.68,15.72,15.72,0,0,1,2.45,4.84,10.8,10.8,0,0,1,.6,2.55l.12,1,.06.52,0,.26,0,.66a17.39,17.39,0,0,1-3.32,9.85,16.92,16.92,0,0,1-8,5.66,15.41,15.41,0,0,1-4.6.72l-1.87-.08a12.64,12.64,0,0,1-2.21-.4,16.94,16.94,0,0,1-6.55-3.26c-.78-.8-1.53-1.54-2.19-2.26s-1.14-1.55-1.57-2.3a17.08,17.08,0,0,1-1.56-4.15,12.44,12.44,0,0,1-.42-2.79C509.26,451.9,509.23,451.55,509.23,451.55Z"/><path class="cls-3" d="M528.72,456.87a7.53,7.53,0,1,0-10.65,0A7.53,7.53,0,0,0,528.72,456.87Z"/><path class="cls-2" d="M528.72,456.87l.33-.42a5.18,5.18,0,0,0,.81-1.25,5.81,5.81,0,0,0,.6-2.18,6,6,0,0,0-.52-2.78,5.34,5.34,0,0,0-2.05-2.27c-.17-.07-.55-.39-.53-.26l-.93-.42c-.72-.37-.93,0-1.34-.13a6.5,6.5,0,0,0-2.46.61,8.81,8.81,0,0,0-.93.6,1.86,1.86,0,0,0-.41.33l-.2.18-.1.08,0,0,0,0h0l.27-.3a11.1,11.1,0,0,0-1.53,2.05,6.84,6.84,0,0,0-.6,2.45,5.12,5.12,0,0,0,.82,2.8,5.38,5.38,0,0,0,2.24,2,5.65,5.65,0,0,0,5-.07,4.89,4.89,0,0,0,1.24-.81Zm0,0a9.32,9.32,0,0,1-1.59,1.26,9.86,9.86,0,0,1-2.14,1.08,12.24,12.24,0,0,1-3.23.57,10,10,0,0,1-2-.25,12.66,12.66,0,0,1-2.14-.74,9.32,9.32,0,0,1-3.88-3.51,10,10,0,0,1-1.33-5.95c0-2,1.9-5,2.58-5.62l.29-.32h0l0,0,.08-.06.16-.14.33-.27.66-.52a5.72,5.72,0,0,1,1.46-.84,9.58,9.58,0,0,1,3.16-.93,9.93,9.93,0,0,1,5.94,1.32,8.15,8.15,0,0,1,2.19,1.86l.59.84a4.81,4.81,0,0,1,.73,1.19,10.11,10.11,0,0,1,1,4.12,12.35,12.35,0,0,1-.56,3.23,9.66,9.66,0,0,1-1.07,2.14A9.32,9.32,0,0,1,528.72,456.87Z"/><path class="cls-3" d="M473.68,176.94a14.18,14.18,0,1,0,14.17,14.18A14.18,14.18,0,0,0,473.68,176.94Z"/><path class="cls-2" d="M473.68,176.94l-1,.12a9.77,9.77,0,0,0-2.76.52c-.57.22-1.21.4-1.86.7l-2,1.26c-.64.53-1.24,1.19-1.9,1.81a20.81,20.81,0,0,0-1.59,2.37,12.13,12.13,0,0,0-1.2,6,10.15,10.15,0,0,0,.13,1.41L462,193c.27,1.35.92,1.83,1.33,2.76a14.27,14.27,0,0,0,4.55,4.18,16.1,16.1,0,0,0,2.85,1,5.31,5.31,0,0,0,1.47.28l.75.06.37,0,.19,0h.16l-.38,0a14.78,14.78,0,0,0,6.2-1.46A14.46,14.46,0,0,0,484,195.7a12.43,12.43,0,0,0,.71-12,21.83,21.83,0,0,0-1.58-2.38c-.67-.62-1.26-1.28-1.9-1.8l-2-1.27c-.65-.3-1.3-.48-1.87-.7a9.78,9.78,0,0,0-2.75-.52Zm0,0,1,.09a11.88,11.88,0,0,1,2.79.42,17,17,0,0,1,4.15,1.55c.75.44,1.48,1,2.3,1.58s1.47,1.4,2.27,2.18a22.06,22.06,0,0,1,1.92,3,15.65,15.65,0,0,1,1.35,3.61,16.06,16.06,0,0,1-.23,8.67,17,17,0,0,1-5.67,8c-2.49,2.11-7.25,3.28-9.46,3.29l-.45,0h-.29l-.33,0-.66-.07L471,209a9.25,9.25,0,0,1-2.57-.65,16.16,16.16,0,0,1-4.63-2.39,17,17,0,0,1-5.67-8,15.35,15.35,0,0,1-.71-4.59l.08-1.88a11.49,11.49,0,0,1,.4-2.2,17.08,17.08,0,0,1,3.26-6.55c.8-.79,1.54-1.54,2.26-2.2s1.55-1.14,2.3-1.57a17.08,17.08,0,0,1,4.15-1.56,11.81,11.81,0,0,1,2.78-.42Z"/><path class="cls-3" d="M468.36,196.44a7.53,7.53,0,1,0,0-10.64A7.54,7.54,0,0,0,468.36,196.44Z"/><path class="cls-2" d="M468.36,196.44l.42.33a5.08,5.08,0,0,0,1.24.81,5.62,5.62,0,0,0,5,.09,5.37,5.37,0,0,0,2.28-2c.07-.18.39-.56.26-.53l.41-.94c.38-.71,0-.93.14-1.34a6.68,6.68,0,0,0-.61-2.45,8.81,8.81,0,0,0-.6-.93,2.18,2.18,0,0,0-.33-.42l-.18-.19-.08-.1,0-.05,0,0h0c.14.12-.3-.27.3.26a11.83,11.83,0,0,0-2-1.52,6.63,6.63,0,0,0-2.45-.6,5.06,5.06,0,0,0-2.8.82,5.35,5.35,0,0,0-2.05,2.24,5.62,5.62,0,0,0,.07,5A4.88,4.88,0,0,0,468,196Zm0,0a8.81,8.81,0,0,1-1.26-1.59,9.76,9.76,0,0,1-1.08-2.13,13.29,13.29,0,0,1-.57-3.24,10.87,10.87,0,0,1,.26-2,12.53,12.53,0,0,1,.74-2.13,9.34,9.34,0,0,1,3.51-3.89,10,10,0,0,1,6-1.32c2,0,5,1.9,5.62,2.58l.31.29,0,0,0,0,.06.09.14.16.26.32.52.67a5.42,5.42,0,0,1,.85,1.45,9.37,9.37,0,0,1-.4,9.09,8.06,8.06,0,0,1-1.86,2.2l-.83.59a4.94,4.94,0,0,1-1.21.72,9.86,9.86,0,0,1-4.11,1,12.7,12.7,0,0,1-3.23-.56A9.86,9.86,0,0,1,470,197.7,9.32,9.32,0,0,1,468.36,196.44Z"/><path class="cls-3" d="M473.68,265.32a17.87,17.87,0,1,0,17.86,17.87A17.87,17.87,0,0,0,473.68,265.32Z"/><path class="cls-2" d="M473.68,265.32l-1.25.14a12.51,12.51,0,0,0-3.48.65c-.72.26-1.54.48-2.36.86l-2.51,1.56c-.82.65-1.6,1.47-2.45,2.24a30.64,30.64,0,0,0-2.09,3,15.9,15.9,0,0,0-1.78,7.63,15.74,15.74,0,0,0,.09,1.87c.17.77.33,1.54.5,2.31a5.39,5.39,0,0,0,.74,2c.32.58.5,1.15.86,1.72a18.14,18.14,0,0,0,5.88,5.75,19.56,19.56,0,0,0,3.83,1.45,7.41,7.41,0,0,0,2,.4l1,.09.51.05.25,0,.13,0h.09l-.36,0a18.62,18.62,0,0,0,8.24-2.07,18.38,18.38,0,0,0,5.86-5.75,16.23,16.23,0,0,0,.42-15.52,29.41,29.41,0,0,0-2.08-3c-.86-.77-1.64-1.59-2.45-2.24L480.77,267c-.83-.38-1.65-.6-2.36-.87a12.48,12.48,0,0,0-3.48-.64Zm0,0,1.25.11a14.4,14.4,0,0,1,3.51.54c.74.22,1.58.39,2.45.72l2.74,1.3c.93.55,1.83,1.29,2.85,2s1.8,1.79,2.77,2.79a26,26,0,0,1,2.29,3.71,20.12,20.12,0,0,1,1,15.07,21,21,0,0,1-7,9.55c-3.09,2.49-8.57,3.86-11.5,3.9l-.45,0h-.16l-.19,0-.4,0-.8-.08-1.59-.17a11.44,11.44,0,0,1-3.1-.76,20.44,20.44,0,0,1-5.61-2.84,20.94,20.94,0,0,1-7-9.54,19.68,19.68,0,0,1-1-5.55l0-2.36a16.43,16.43,0,0,1,.44-2.68,20.77,20.77,0,0,1,3.85-8.18c1-1,1.86-2,2.75-2.79s1.92-1.45,2.85-2l2.74-1.3c.87-.33,1.72-.5,2.45-.72a14.91,14.91,0,0,1,3.51-.54Z"/><path class="cls-3" d="M467,289.9a9.49,9.49,0,1,0,0-13.43A9.5,9.5,0,0,0,467,289.9Z"/><path class="cls-2" d="M467,289.9l.53.41a6.4,6.4,0,0,0,1.56,1,7.63,7.63,0,0,0,2.75.82,8.09,8.09,0,0,0,3.56-.52,7.29,7.29,0,0,0,3.1-2.44c.14-.23.53-.65.46-.7l.57-1.13c.49-.84.21-1.23.39-1.8a8.06,8.06,0,0,0-2.32-6.29c-.05,0-1.47-1.28-1.46-1.1a7.22,7.22,0,0,0-4.82-1.2,7.55,7.55,0,0,0-6.06,4.51,7.45,7.45,0,0,0,.29,6.31,6.4,6.4,0,0,0,1,1.56Zm0,0-.43-.52a8.63,8.63,0,0,1-1.14-1.5,12,12,0,0,1-1.29-2.7,14.52,14.52,0,0,1-.58-4,12.63,12.63,0,0,1,.4-2.44,11.9,11.9,0,0,1,1-2.54,11.26,11.26,0,0,1,4.33-4.5,12,12,0,0,1,7-1.42,11.85,11.85,0,0,1,3.88,1.24,7.92,7.92,0,0,1,1.65,1l.55.43.27.21.14.11.42.37a12.6,12.6,0,0,1,3.38,6.93,12.17,12.17,0,0,1-1.42,7,10.27,10.27,0,0,1-2.12,2.65l-1,.8a6.72,6.72,0,0,1-1.38.88,12,12,0,0,1-5,1.39,14.88,14.88,0,0,1-4-.57,12,12,0,0,1-2.7-1.29,8.79,8.79,0,0,1-1.51-1.14C467.15,290,467,289.9,467,289.9Z"/><path class="cls-3" d="M473.68,352.73a22.52,22.52,0,1,0,22.51,22.52A22.51,22.51,0,0,0,473.68,352.73Z"/><path class="cls-2" d="M473.68,352.73l-1.58.19a16.46,16.46,0,0,0-4.38.82c-.9.32-1.93.58-3,1s-2.06,1.25-3.19,1.92-2,1.83-3.14,2.8a38.78,38.78,0,0,0-2.72,3.72,20.61,20.61,0,0,0-2.51,9.69c0,.8-.06,1.93,0,2.47.18.95.37,1.93.56,2.91a7.56,7.56,0,0,0,.87,2.61c.4.77.61,1.55,1.07,2.32a23.28,23.28,0,0,0,7.55,7.74,26.79,26.79,0,0,0,5.05,2,8.36,8.36,0,0,0,2.66.55l1.36.11.68.06.34,0,.17,0h.12c-.16,0,.43,0-.35,0a22.76,22.76,0,0,0,10.81-2.85,23.34,23.34,0,0,0,7.54-7.74c1.55-3.21,2.82-6.76,2.54-10.32.07-3.81-1.09-6.65-2.5-9.66A42,42,0,0,0,489,359.5c-1.1-1-2.09-2-3.14-2.8s-2.21-1.32-3.19-1.92-2.09-.72-3-1a16.46,16.46,0,0,0-4.38-.82Zm0,0,1.58.13a17.1,17.1,0,0,1,4.42.67c.93.3,2,.53,3.07,1l3.43,1.67c1.16.71,2.28,1.65,3.54,2.56,1.1,1.06,2.21,2.27,3.39,3.54a32.57,32.57,0,0,1,2.77,4.66,22.89,22.89,0,0,1,1.82,5.6c1,4,.5,8.54-.86,13A26,26,0,0,1,488.16,397c-3.86,3-10.23,4.53-14.07,4.68l-.46,0h-.18l-.24,0-.49-.05-1-.1-1.93-.23a14.78,14.78,0,0,1-3.75-.91,23.71,23.71,0,0,1-6.84-3.37,23.26,23.26,0,0,1-9.58-15,11.71,11.71,0,0,1-.42-3.26c0-1,0-2,0-3a20.91,20.91,0,0,1,.48-3.27,25.65,25.65,0,0,1,4.57-10.24c1.18-1.26,2.28-2.48,3.39-3.54s2.38-1.85,3.53-2.56l3.43-1.68c1.08-.43,2.15-.66,3.07-1a17.16,17.16,0,0,1,4.42-.67Z"/><path class="cls-3" d="M465.22,383.7a12,12,0,1,0,0-16.91A12,12,0,0,0,465.22,383.7Z"/><path class="cls-2" d="M465.22,383.7l.66.52a7.78,7.78,0,0,0,2,1.33c.47.21,1,.48,1.54.68s1.25.26,1.92.4a11,11,0,0,0,4.54-.49A9.9,9.9,0,0,0,480,383.2c.21-.3.7-.79.69-.9l.78-1.38c.64-1,.44-1.62.73-2.38a12,12,0,0,0-.38-4.94,13.06,13.06,0,0,0-2.5-4c-.23-.13-1.83-1.62-2.05-1.52a13.88,13.88,0,0,0-1.94-1,12.06,12.06,0,0,0-4.92-.37,10.1,10.1,0,0,0-7.61,6.33,16.87,16.87,0,0,0-.52,2.33c0,.76,0,1.51,0,2.2s.27,1.34.4,1.93.48,1.07.68,1.54a7.88,7.88,0,0,0,1.32,2Zm0,0-.54-.64a10.61,10.61,0,0,1-1.43-1.91,16.23,16.23,0,0,1-1.59-3.4c-.2-.71-.3-1.49-.46-2.32s-.06-1.75-.09-2.69a17.36,17.36,0,0,1,.57-3,14.74,14.74,0,0,1,1.32-3,13.72,13.72,0,0,1,5.36-5.27,14.52,14.52,0,0,1,8.42-1.51,13.4,13.4,0,0,1,4.55,1.47,9.64,9.64,0,0,1,1.95,1.2l.69.55.34.27.18.13.47.42a15,15,0,0,1,4,8.19,14.55,14.55,0,0,1-1.51,8.4A13,13,0,0,1,485,383.8l-1.2,1.05a10.92,10.92,0,0,1-1.63,1.09,14.7,14.7,0,0,1-6,1.87l-2.69-.08c-.83-.17-1.61-.27-2.31-.47a15.85,15.85,0,0,1-3.41-1.59,10.61,10.61,0,0,1-1.91-1.43Z"/><path class="cls-3" d="M473.68,506.48A25.56,25.56,0,1,0,499.24,532,25.55,25.55,0,0,0,473.68,506.48Z"/><path class="cls-2" d="M473.68,506.48l-1.79.21c-1.14.24-2.94.07-5,.92-1,.36-2.2.65-3.4,1.18L459.87,511c-1.2.91-2.33,2.06-3.59,3.16a45.56,45.56,0,0,0-3.13,4.21c-1.61,3.26-3.09,7-3,11,0,.93-.09,2.19,0,2.85.19,1.1.39,2.2.6,3.31a8.74,8.74,0,0,0,1,3c.43.9.68,1.82,1.2,2.71a26.46,26.46,0,0,0,8.65,9c2,.85,3.75,2,5.85,2.4a10.2,10.2,0,0,0,3.09.64l1.58.13.79.08.39,0,.2,0h.15c-.16,0,.43,0-.35,0a26,26,0,0,0,12.5-3.37,26.56,26.56,0,0,0,8.63-9c1.74-3.73,3.14-7.82,2.77-11.89,0-4.32-1.35-7.62-3-11a45.51,45.51,0,0,0-3.12-4.21c-1.26-1.1-2.4-2.25-3.59-3.16l-3.65-2.16c-1.19-.53-2.38-.82-3.4-1.18-2.05-.85-3.83-.68-5-.92Zm0,0,1.79.15c1.15.21,2.94,0,5,.77,1.05.34,2.25.6,3.48,1.09l3.88,1.91c1.3.82,2.56,1.89,4,2.93,1.26,1.2,2.49,2.59,3.81,4,1,1.67,2.31,3.25,3.08,5.29a24.74,24.74,0,0,1,2,6.32c1.1,4.48.48,9.59-1.08,14.56a29.22,29.22,0,0,1-9.78,12.83c-4.34,3.31-11.31,5-15.75,5.2-.82,0-.26,0-.46,0h-.21l-.27,0-.54-.06-1.07-.12-2.16-.25a16,16,0,0,1-4.18-1c-2.83-.67-5.25-2.27-7.65-3.73a26.05,26.05,0,0,1-10.8-16.72,12.47,12.47,0,0,1-.51-3.66c0-1.13-.05-2.26-.07-3.36a26.26,26.26,0,0,1,.51-3.66c.7-4.57,2.91-8.39,5.05-11.59,1.32-1.43,2.56-2.82,3.8-4,1.42-1,2.68-2.1,4-2.93l3.87-1.91c1.23-.5,2.44-.76,3.48-1.1,2.08-.79,3.86-.56,5-.77Z"/><path class="cls-3" d="M464.08,541.63a13.58,13.58,0,1,0,0-19.19A13.57,13.57,0,0,0,464.08,541.63Z"/><path class="cls-2" d="M464.08,541.63l.75.6a9.6,9.6,0,0,0,2.22,1.51c.54.23,1.09.55,1.74.79L471,545c.79.08,1.64,0,2.51.07a18.92,18.92,0,0,0,2.67-.55,11.4,11.4,0,0,0,4.85-3.27,9.13,9.13,0,0,0,.84-1l.92-1.55c.73-1.11.59-1.86.94-2.76a13.59,13.59,0,0,0-.3-5.83,16.08,16.08,0,0,0-1.25-2.57,5.06,5.06,0,0,0-.79-1.16l-.46-.54-.23-.27-.11-.14-.05-.07,0,0,0,0c.13.11-.31-.29.29.25a14.3,14.3,0,0,0-5.12-3.2,13.7,13.7,0,0,0-5.82-.29,11.79,11.79,0,0,0-8.61,7.52,19.21,19.21,0,0,0-.55,2.67c0,.87,0,1.73.06,2.52s.32,1.51.47,2.18.55,1.21.78,1.75a9.28,9.28,0,0,0,1.51,2.21Zm0,0-.62-.73a11.67,11.67,0,0,1-1.6-2.17,16.57,16.57,0,0,1-1.77-3.87c-.22-.79-.33-1.68-.51-2.62,0-1,0-2-.06-3a19.73,19.73,0,0,1,.7-3.32,15.76,15.76,0,0,1,7.57-9.17,16.17,16.17,0,0,1,9.31-1.59c3.14.24,7.22,2.73,8.7,4.21l.33.3,0,0,0,.06.1.13.21.24.4.5.81,1a9.55,9.55,0,0,1,1.31,2.2,15.41,15.41,0,0,1,1.52,4.81,16.36,16.36,0,0,1-1.59,9.31,14.63,14.63,0,0,1-2.66,3.6L485,542.76a11.67,11.67,0,0,1-1.79,1.22,16.34,16.34,0,0,1-6.68,2.21c-1.08,0-2.09,0-3-.06s-1.82-.29-2.62-.5a17.65,17.65,0,0,1-3.87-1.77,11.07,11.07,0,0,1-2.16-1.61Z"/></g></g></g></svg>