<?xml version="1.0" encoding="utf-8"?>
<!-- Generator: Adobe Illustrator 24.0.0, SVG Export Plug-In . SVG Version: 6.00 Build 0)  -->
<svg version="1.1" id="Capa_1" xmlns="http://www.w3.org/2000/svg" xmlns:xlink="http://www.w3.org/1999/xlink" x="0px" y="0px"
	 viewBox="0 0 512 512" style="enable-background:new 0 0 512 512;" xml:space="preserve">
<style type="text/css">
	.st0{fill:#003133;}
</style>
<g>
	<path class="st0" d="M279.3,265h44.3v30h-44.3V265z"/>
	<path class="st0" d="M227.2,386.8h57.7v30h-57.7V386.8z"/>
	<path class="st0" d="M511.7,0h-83.9c-41.3,0-74.9,33.6-74.9,74.9v18.8c-23.3-27.5-58.1-45.1-96.9-45.1s-73.6,17.5-96.9,45.1V74.9
		C159.1,33.6,125.5,0,84.2,0H0.3v19.8c0,16.7,5.5,32.1,14.8,44.5H0.3v19.8c0,16.6,5.5,31.9,14.7,44.3H0.3v19.8
		c0,36.3,26.1,66.5,60.5,73c6.1,33.1,34.1,58.6,68.3,61v127.3h-34c-41.3,0-74.9,33.6-74.9,74.9v27h30v-27
		c0-24.8,20.2-44.9,44.9-44.9h34V512h19.2c13.6,0,26.2-4.1,36.8-11.1V512h19.2c20.8,0,39.5-9.6,51.7-24.6
		c12.2,15,30.9,24.6,51.7,24.6h19.2v-11.1c10.5,7,23.2,11.1,36.8,11.1h19.2v-72.6h34c24.8,0,44.9,20.2,44.9,44.9v27h30v-27
		c0-41.3-33.6-74.9-74.9-74.9h-34V282.1c34.2-2.4,62.2-27.9,68.3-61c34.4-6.5,60.5-36.7,60.5-73v-19.8H497
		c9.2-12.4,14.7-27.7,14.7-44.3V64.3h-14.8c9.3-12.4,14.8-27.8,14.8-44.5V0L511.7,0z M352.9,175.5v24.9H301V89.7
		C331.8,105.9,352.9,138.3,352.9,175.5z M352.9,346.1H313l-21.5-23.9h-71L199,346.1h-39.8V295h88.5v-64.6h105.2v34.2V346.1
		L352.9,346.1z M217.7,230.4V265h-58.6v-0.4v-34.2L217.7,230.4L217.7,230.4z M271,79.8v120.6h-30V79.8c4.9-0.8,9.9-1.2,15-1.2
		C261.1,78.6,266.1,79,271,79.8z M211.1,89.7v110.7h-51.9v-24.9C159.1,138.3,180.2,105.9,211.1,89.7z M89.6,207.4v-15h-15
		c-20.9,0-38.5-14.6-43.1-34.1h49v-30h-5.9c-20.9,0-38.5-14.6-43.1-34.1h49v-30h-5.9V64c-20.9,0-38.5-14.6-43.1-34.1h52.7
		c24.8,0,44.9,20.2,44.9,44.9V252C106.9,249.4,89.6,230.4,89.6,207.4L89.6,207.4z M326.9,445.3h-30v35.1c-15-4.6-26-18.6-26-35.1
		h-30c0,16.5-10.9,30.5-26,35.1v-35.1h-30c0,16.5-10.9,30.5-26,35.1V376h53.2l21.5-23.9h44.3l21.5,23.9h53.2v104.4
		C337.9,475.8,326.9,461.8,326.9,445.3z M431.5,64.3v30h49c-4.6,19.5-22.2,34.1-43.1,34.1h-5.9v30h49c-4.6,19.5-22.2,34.1-43.1,34.1
		h-15v15c0,23-17.3,42-39.6,44.6V74.9c0-24.8,20.2-44.9,44.9-44.9h52.7c-4.6,19.5-22.2,34.1-43.1,34.1v0.2L431.5,64.3z"/>
</g>
</svg>
