<svg xmlns="http://www.w3.org/2000/svg" viewBox="0 0 281.02 209.43"><defs><style>.cls-1{fill:#b2a9a7;}.cls-2{fill:#726f6f;}.cls-3{fill:#302019;}.cls-4{fill:#f9a208;}</style></defs><title>viking-axe</title><g id="Layer_2" data-name="Layer 2"><g id="Layer_1-2" data-name="Layer 1"><g id="_5" data-name="5"><path class="cls-1" d="M269.79,20.51a57.89,57.89,0,0,1-11.38,17.3A96,96,0,0,1,148,132.3a47.6,47.6,0,0,1-16.84,2.82c28.17,26.61,76.52,26.06,112.65-2.8C280.83,102.7,291.68,54,269.79,20.51Z"/><path class="cls-2" d="M222.35,112.38a95.16,95.16,0,0,0,36.06-74.57,55.63,55.63,0,0,1-5.58,5.12c-26.29,21-65.82,15.24-88.28-12.88a68.94,68.94,0,0,1-12.1-22.83c-1.82,1.28-3.64,2.6-5.41,4a102.82,102.82,0,0,0-25.43,29.69A47.64,47.64,0,0,1,148,132.3,95.3,95.3,0,0,0,222.35,112.38Z"/><rect class="cls-3" x="97.05" y="-32.76" width="22.05" height="268.21" rx="3.08" transform="translate(103.32 -46.74) rotate(45)"/><rect class="cls-4" x="150.24" y="27.01" width="31.59" height="32.78" rx="2.08" transform="translate(79.32 -104.69) rotate(45)"/><rect class="cls-4" x="88.28" y="97.9" width="31.59" height="14.9" rx="2.08" transform="translate(104.98 -42.74) rotate(45)"/><rect class="cls-4" x="-0.22" y="186.41" width="31.59" height="14.9" rx="2.08" transform="translate(141.64 45.77) rotate(45)"/></g></g></g></svg>